<svg width="38" height="34" viewBox="0 0 38 34" fill="none" xmlns="http://www.w3.org/2000/svg">
<path d="M24 3.02411L36.5644 23.951C38.37 26.9566 37.4831 30.911 34.5825 32.7822C33.609 33.4126 32.4742 33.7485 31.3144 33.7497H6.18375C2.76938 33.7497 0 30.881 0 27.3391C0 26.141 0.324375 24.9691 0.93375 23.951L13.5 3.02411C15.3038 0.0184844 19.1175 -0.902141 22.0181 0.969109C22.8206 1.48661 23.4994 2.18973 24 3.02411ZM19.8375 4.59723C19.608 4.44959 19.3509 4.35001 19.0818 4.3045C18.8127 4.259 18.5371 4.26852 18.2718 4.33248C18.0065 4.39645 17.7569 4.51353 17.5381 4.67666C17.3193 4.8398 17.1358 5.04559 16.9988 5.28161L4.43437 26.2122C4.23028 26.5533 4.1227 26.9435 4.12312 27.341C4.12312 28.5222 5.04563 29.4785 6.18563 29.4785H31.3125C31.6988 29.4785 32.0756 29.366 32.4019 29.156C32.87 28.8449 33.2001 28.3653 33.3234 27.8169C33.4467 27.2685 33.3537 26.6937 33.0638 26.2122L20.4994 5.28161C20.3346 5.00603 20.1088 4.7719 19.8394 4.59723H19.8375ZM18.75 26.2497C18.2527 26.2497 17.7758 26.0522 17.4242 25.7006C17.0725 25.3489 16.875 24.872 16.875 24.3747C16.875 23.8775 17.0725 23.4005 17.4242 23.0489C17.7758 22.6973 18.2527 22.4997 18.75 22.4997C19.2473 22.4997 19.7242 22.6973 20.0758 23.0489C20.4275 23.4005 20.625 23.8775 20.625 24.3747C20.625 24.872 20.4275 25.3489 20.0758 25.7006C19.7242 26.0522 19.2473 26.2497 18.75 26.2497ZM18.75 9.37473C19.2473 9.37473 19.7242 9.57228 20.0758 9.92391C20.4275 10.2755 20.625 10.7525 20.625 11.2497V18.7497C20.625 19.247 20.4275 19.7239 20.0758 20.0756C19.7242 20.4272 19.2473 20.6247 18.75 20.6247C18.2527 20.6247 17.7758 20.4272 17.4242 20.0756C17.0725 19.7239 16.875 19.247 16.875 18.7497V11.2497C16.875 10.7525 17.0725 10.2755 17.4242 9.92391C17.7758 9.57228 18.2527 9.37473 18.75 9.37473Z" fill="#F3B753"/>
</svg>
