<svg width="251" height="36" viewBox="0 0 251 36" fill="none" xmlns="http://www.w3.org/2000/svg">
<path d="M27.582 32.1633C26.7146 32.5796 25.8126 32.996 24.8758 33.4123C23.9738 33.794 23.0023 34.1409 21.9615 34.4532C20.9207 34.7308 19.7758 34.9563 18.5268 35.1298C17.3125 35.3033 15.9767 35.39 14.5196 35.39C9.87053 35.39 6.27967 34.3491 3.74699 32.2673C1.249 30.1856 0 26.716 0 21.8585C0 19.0481 0.433679 16.4112 1.30104 13.9478C2.1684 11.4497 3.45209 9.2812 5.15211 7.44231C6.85213 5.56872 8.95114 4.09414 11.4491 3.01856C13.9471 1.94298 16.8094 1.40519 20.036 1.40519C21.5625 1.40519 22.9503 1.50928 24.1993 1.71746C25.483 1.92563 26.6279 2.2032 27.634 2.55016C28.6749 2.86243 29.5943 3.20939 30.3922 3.59104C31.2249 3.9727 31.9708 4.33701 32.63 4.68397L30.7565 14.3642H21.3891C21.4237 14.0172 21.4584 13.5662 21.4931 13.011C21.5625 12.4559 21.6146 11.9008 21.6493 11.3456C21.684 10.7558 21.7187 10.1833 21.7533 9.62816C21.788 9.07302 21.8054 8.60463 21.8054 8.22297C21.8054 7.9454 21.788 7.63314 21.7533 7.28618C21.7187 6.90452 21.6319 6.54021 21.4931 6.19325C21.3544 5.84629 21.1288 5.56872 20.8166 5.36055C20.539 5.11767 20.1574 4.99624 19.6717 4.99624C18.7696 4.99624 17.937 5.37789 17.1737 6.14121C16.4451 6.86982 15.7859 7.85866 15.1961 9.10772C14.6063 10.3221 14.0859 11.7099 13.6349 13.2713C13.1838 14.8326 12.8022 16.4286 12.49 18.0593C12.2124 19.6553 11.9869 21.234 11.8134 22.7953C11.6746 24.3566 11.6053 25.7271 11.6053 26.9068C11.6053 27.2538 11.6226 27.6875 11.6573 28.2079C11.692 28.7284 11.7961 29.2314 11.9695 29.7172C12.143 30.2029 12.4032 30.6193 12.7502 30.9662C13.1318 31.3132 13.6349 31.4867 14.2594 31.4867C15.3349 31.4867 16.3757 30.8275 17.3819 29.509C18.388 28.1559 19.2727 25.7618 20.036 22.3269H29.6637L27.582 32.1633Z" fill="white"/>
<path d="M57.6208 12.5947H66.1036L66.8842 16.498H67.2485C68.0465 15.2489 69.0699 14.1907 70.3189 13.3233C71.5679 12.4559 73.2159 12.0222 75.2629 12.0222C75.4017 12.0222 75.6098 12.0395 75.8874 12.0742C76.1996 12.0742 76.5292 12.1263 76.8762 12.2304C77.2578 12.2998 77.6394 12.4212 78.0211 12.5947C78.4374 12.7335 78.8364 12.9416 79.218 13.2192L76.9282 23.9403H71.2557C71.1863 21.7891 70.9955 20.2972 70.6832 19.4645C70.371 18.5971 69.8679 18.1634 69.174 18.1634C68.8271 18.1634 68.4454 18.2501 68.0291 18.4236C67.6475 18.5624 67.2485 18.892 66.8322 19.4125L63.5015 34.9736H52.885L57.6208 12.5947Z" fill="white"/>
<path d="M110.464 9.47203C110.464 10.4782 110.308 11.3803 109.995 12.1783C109.718 12.9763 109.319 13.6876 108.798 14.3121C108.278 14.9367 107.671 15.4918 106.977 15.9775C106.283 16.4633 105.52 16.9143 104.687 17.3307C105.069 17.4695 105.52 17.695 106.04 18.0073C106.561 18.2848 107.064 18.6838 107.549 19.2043C108.035 19.7247 108.434 20.4013 108.746 21.234C109.093 22.032 109.267 23.0208 109.267 24.2005C109.267 25.7618 108.937 27.2017 108.278 28.5202C107.619 29.8386 106.63 30.9836 105.312 31.9551C104.028 32.8919 102.432 33.6378 100.524 34.193C98.6502 34.7134 96.4818 34.9736 94.0185 34.9736H78.5622L82.075 18.4496L85.5878 1.92563H99.2747C100.628 1.92563 101.964 2.02972 103.282 2.2379C104.635 2.41138 105.832 2.77569 106.873 3.33082C107.948 3.88596 108.816 4.66662 109.475 5.67281C110.134 6.6443 110.464 7.91071 110.464 9.47203ZM96.3084 15.7694C97.0716 15.7694 97.7135 15.5438 98.2339 15.0928C98.789 14.6417 99.2401 14.0866 99.587 13.4274C99.9339 12.7335 100.194 12.0048 100.368 11.2415C100.541 10.4435 100.628 9.73225 100.628 9.10772C100.628 8.10153 100.385 7.25148 99.8992 6.55756C99.4482 5.82894 98.7196 5.46463 97.7135 5.46463H96.1523L93.9145 15.7694H96.3084ZM92.5614 31.6949C93.6022 31.6949 94.4696 31.4 95.1635 30.8101C95.8573 30.2203 96.4298 29.4917 96.8808 28.6243C97.3319 27.7569 97.6441 26.8548 97.8176 25.918C98.0257 24.9465 98.1298 24.0964 98.1298 23.3678C98.1298 22.1534 97.8696 21.1993 97.3492 20.5054C96.8635 19.7768 96.0655 19.4125 94.9553 19.4125H93.0298L90.4797 31.6949H92.5614Z" fill="#F3B753"/>
<path d="M115.151 12.5947H123.634L124.414 16.498H124.779C125.577 15.2489 126.6 14.1907 127.849 13.3233C129.098 12.4559 130.746 12.0222 132.793 12.0222C132.932 12.0222 133.14 12.0395 133.418 12.0742C133.73 12.0742 134.059 12.1263 134.406 12.2304C134.788 12.2998 135.17 12.4212 135.551 12.5947C135.968 12.7335 136.367 12.9416 136.748 13.2192L134.458 23.9403H128.786C128.717 21.7891 128.526 20.2972 128.213 19.4645C127.901 18.5971 127.398 18.1634 126.704 18.1634C126.357 18.1634 125.976 18.2501 125.559 18.4236C125.178 18.5624 124.779 18.892 124.362 19.4125L121.032 34.9736H110.415L115.151 12.5947Z" fill="#F3B753"/>
<path d="M152.486 12.0222C156.614 12.0222 159.615 12.7508 161.489 14.208C163.466 15.7347 164.455 18.2675 164.455 21.8065C164.455 23.9923 164.091 25.97 163.362 27.7395C162.634 29.4743 161.61 30.9142 160.292 32.0592C157.655 34.2797 153.839 35.39 148.843 35.39C144.575 35.39 141.522 34.5746 139.683 32.9439C137.706 31.2438 136.717 28.6937 136.717 25.2934C136.717 23.0382 137.168 20.9911 138.07 19.1522C139.007 17.3133 140.343 15.7867 142.077 14.5724C144.61 12.8722 148.079 12.0222 152.486 12.0222ZM148.947 31.851C149.814 31.851 150.56 31.3653 151.185 30.3938C151.844 29.4223 152.364 28.2426 152.746 26.8548C153.127 25.4322 153.405 23.975 153.578 22.4831C153.787 20.9564 153.891 19.638 153.891 18.5277C153.891 17.5562 153.787 16.8276 153.578 16.3419C153.405 15.8214 153.006 15.5612 152.381 15.5612C151.445 15.5612 150.629 16.0643 149.936 17.0705C149.276 18.0767 148.739 19.2737 148.322 20.6615C147.906 22.0494 147.594 23.4719 147.385 24.9291C147.212 26.3864 147.125 27.566 147.125 28.4681C147.125 30.7234 147.732 31.851 148.947 31.851Z" fill="#F3B753"/>
<path d="M178.881 22.0667L191.006 12.5947H197.876L187.52 21.0779L191.397 28.0258L195.274 34.9736H183.617L178.308 24.5128L176.123 34.9736H165.506L172.896 0H183.564L178.881 22.0667Z" fill="#F3B753"/>
<path d="M207.102 24.5128C206.964 25.2761 206.859 26.0047 206.79 26.6986C206.755 27.3926 206.738 28.0171 206.738 28.5722C206.738 28.8845 206.755 29.2314 206.79 29.6131C206.825 29.9948 206.894 30.3591 206.998 30.706C207.137 31.0183 207.31 31.2959 207.519 31.5387C207.761 31.7469 208.091 31.851 208.507 31.851C208.82 31.851 209.167 31.7469 209.548 31.5387C209.965 31.3306 210.364 31.0356 210.745 30.654C211.162 30.2723 211.543 29.8039 211.89 29.2488C212.272 28.6937 212.567 28.0691 212.775 27.3752H221.31L219.957 32.9439C219.263 33.395 218.465 33.7766 217.563 34.0889C216.661 34.4012 215.706 34.6614 214.7 34.8696C213.694 35.043 212.671 35.1645 211.63 35.2339C210.589 35.338 209.6 35.39 208.664 35.39C206.929 35.39 205.316 35.2339 203.824 34.9216C202.332 34.6093 201.031 34.0715 199.921 33.3082C198.81 32.5449 197.926 31.5387 197.266 30.2897C196.642 29.0059 196.33 27.4273 196.33 25.5537C196.33 23.8536 196.59 22.1881 197.11 20.5574C197.665 18.9267 198.567 17.4868 199.816 16.2378C201.1 14.954 202.8 13.9305 204.917 13.1672C207.068 12.4038 209.739 12.0222 212.931 12.0222C216.4 12.0222 219.002 12.56 220.737 13.6356C222.507 14.7111 223.391 16.3939 223.391 18.6838C223.391 19.6206 223.252 20.6442 222.975 21.7544C222.697 22.83 222.281 23.7495 221.726 24.5128H207.102ZM214.024 18.3195C214.024 17.244 213.85 16.5153 213.503 16.1337C213.156 15.752 212.74 15.5612 212.254 15.5612C211.699 15.5612 211.179 15.752 210.693 16.1337C210.242 16.4806 209.826 16.9664 209.444 17.5909C209.062 18.1807 208.716 18.8747 208.403 19.6727C208.091 20.436 207.831 21.2513 207.623 22.1187H213.555C213.625 21.7024 213.694 21.2687 213.764 20.8176C213.833 20.436 213.885 20.0196 213.92 19.5686C213.989 19.1175 214.024 18.7012 214.024 18.3195Z" fill="#F3B753"/>
<path d="M228.433 12.5947H236.916L237.696 16.498H238.06C238.858 15.2489 239.882 14.1907 241.131 13.3233C242.38 12.4559 244.028 12.0222 246.075 12.0222C246.214 12.0222 246.422 12.0395 246.699 12.0742C247.012 12.0742 247.341 12.1263 247.688 12.2304C248.07 12.2998 248.451 12.4212 248.833 12.5947C249.249 12.7335 249.648 12.9416 250.03 13.2192L247.74 23.9403H242.068C241.998 21.7891 241.807 20.2972 241.495 19.4645C241.183 18.5971 240.68 18.1634 239.986 18.1634C239.639 18.1634 239.257 18.2501 238.841 18.4236C238.459 18.5624 238.06 18.892 237.644 19.4125L234.313 34.9736H223.697L228.433 12.5947Z" fill="#F3B753"/>
<path fill-rule="evenodd" clip-rule="evenodd" d="M53.454 12.8994H41.6078C40.6739 12.8986 39.7634 13.1879 39.0058 13.7262C38.2482 14.2645 37.682 15.0243 37.3877 15.8979L35.3584 21.8977C34.8189 22.1204 34.3582 22.4952 34.0341 22.975C33.7101 23.4549 33.5371 24.0185 33.5369 24.5949V28.9807C33.5369 30.0597 34.1361 30.9924 35.0202 31.4997V33.3666C35.0202 33.7543 35.1765 34.1261 35.4547 34.4003C35.7329 34.6745 36.1102 34.8285 36.5036 34.8285H37.9869C38.3804 34.8285 38.7577 34.6745 39.0358 34.4003C39.314 34.1261 39.4703 33.7543 39.4703 33.3666V31.9046H49.1674L51.4756 21.6711H38.561L40.2001 16.8233C40.4033 16.2254 40.97 15.8233 41.6078 15.8233H52.7945L53.454 12.8994ZM37.8769 28.8135C38.1469 28.9238 38.4363 28.9806 38.7286 28.9807C39.3189 28.9809 39.8852 28.75 40.3027 28.3388C40.7203 27.9275 40.955 27.3696 40.9552 26.7878C40.9553 26.2061 40.721 25.648 40.3038 25.2365C39.8865 24.825 39.3204 24.5937 38.7301 24.5935C38.1398 24.5933 37.5736 24.8242 37.156 25.2355C36.7385 25.6467 36.5038 26.2046 36.5036 26.7864C36.5034 27.3682 36.7377 27.9262 37.155 28.3377C37.3616 28.5415 37.6069 28.7032 37.8769 28.8135Z" fill="white"/>
</svg>
