<svg width="16" height="15" viewBox="0 0 16 15" fill="none" xmlns="http://www.w3.org/2000/svg">
<path fill-rule="evenodd" clip-rule="evenodd" d="M3.94738 6.31584C3.94738 5.88005 4.30106 5.52637 4.73685 5.52637C5.17264 5.52637 5.52633 5.88005 5.52633 6.31584C5.52633 6.75163 5.17264 7.10531 4.73685 7.10531C4.30106 7.10531 3.94738 6.75163 3.94738 6.31584ZM7.89479 5.52637C7.459 5.52637 7.10532 5.88005 7.10532 6.31584C7.10532 6.75163 7.459 7.10531 7.89479 7.10531C8.33058 7.10531 8.68427 6.75163 8.68427 6.31584C8.68427 5.88005 8.33058 5.52637 7.89479 5.52637ZM11.0527 5.52637C10.6169 5.52637 10.2633 5.88005 10.2633 6.31584C10.2633 6.75163 10.6169 7.10531 11.0527 7.10531C11.4885 7.10531 11.8422 6.75163 11.8422 6.31584C11.8422 5.88005 11.4885 5.52637 11.0527 5.52637ZM14.2105 10.263C14.2105 10.698 13.856 11.0525 13.421 11.0525H5.1742C4.74552 11.0525 4.32394 11.1694 3.95526 11.3904L1.57894 12.8162V2.3683C1.57894 1.9333 1.93342 1.57883 2.36842 1.57883H13.421C13.856 1.57883 14.2105 1.9333 14.2105 2.3683V10.263ZM13.4211 0H2.36842C1.06263 0 0 1.06263 0 2.36842V14.2105C0 14.4947 0.153158 14.7576 0.400263 14.8974C0.521053 14.9661 0.655263 15 0.789474 15C0.93 15 1.07053 14.9629 1.19605 14.8871L4.76763 12.7445C4.89079 12.6703 5.03132 12.6316 5.17421 12.6316H13.4211C14.7268 12.6316 15.7895 11.5689 15.7895 10.2632V2.36842C15.7895 1.06263 14.7268 0 13.4211 0Z" fill="#16171B"/>
</svg>
