<svg width="20" height="20" viewBox="0 0 20 20" fill="none" xmlns="http://www.w3.org/2000/svg">
<path d="M2.4999 10.8333H3.33324V16.6667C3.33324 17.5858 4.08074 18.3333 4.9999 18.3333H14.9999C15.9191 18.3333 16.6666 17.5858 16.6666 16.6667V10.8333H17.4999C17.6647 10.8333 17.8258 10.7844 17.9628 10.6928C18.0998 10.6013 18.2066 10.4711 18.2696 10.3189C18.3327 10.1666 18.3492 9.99911 18.3171 9.83748C18.2849 9.67585 18.2056 9.52738 18.0891 9.41084L10.5891 1.91084C10.5117 1.83338 10.4199 1.77194 10.3188 1.73001C10.2177 1.68808 10.1093 1.6665 9.9999 1.6665C9.89046 1.6665 9.78209 1.68808 9.68099 1.73001C9.5799 1.77194 9.48806 1.83338 9.41074 1.91084L1.91074 9.41084C1.79423 9.52738 1.71489 9.67585 1.68275 9.83748C1.65061 9.99911 1.66711 10.1666 1.73017 10.3189C1.79323 10.4711 1.90001 10.6013 2.03702 10.6928C2.17403 10.7844 2.33511 10.8333 2.4999 10.8333ZM9.9999 3.67834L14.9999 8.67834V12.5L15.0007 16.6667H4.9999V8.67834L9.9999 3.67834Z" fill="#16171B"/>
<path d="M10 15C13.0858 15 14.0842 12.0508 14.125 11.9258L12.5417 11.4083C12.535 11.4275 11.8908 13.3333 10 13.3333C8.135 13.3333 7.48333 11.4825 7.4575 11.4033L5.875 11.9258C5.91583 12.0508 6.91417 15 10 15Z" fill="#16171B"/>
</svg>
