<svg width="36" height="36" viewBox="0 0 36 36" fill="none" xmlns="http://www.w3.org/2000/svg">
<path d="M21.2501 15.8333C21.2501 15.2375 21.7376 14.75 22.3334 14.75C22.9293 14.75 23.4167 15.2375 23.4167 15.8333C23.4167 16.4292 22.9293 16.9167 22.3334 16.9167C21.7376 16.9167 21.2501 16.4292 21.2501 15.8333ZM13.6667 14.75H19.0834V12.5833H13.6667V14.75ZM28.8334 13.125V20.6758L25.7784 21.6942L23.9584 27.75H18.0001V25.5833H15.8334V27.75H9.87508C9.87508 27.75 7.16675 18.585 7.16675 15.2917C7.16675 11.9983 9.83175 9.33334 13.1251 9.33334H18.5417C19.5276 8.0225 21.0984 7.16667 22.8751 7.16667C23.1428 7.16673 23.4063 7.23302 23.6422 7.35963C23.8781 7.48624 24.079 7.66924 24.227 7.89232C24.375 8.1154 24.4655 8.37164 24.4905 8.63819C24.5155 8.90474 24.4741 9.17332 24.3701 9.42C24.2184 9.78834 24.0884 10.2108 24.0234 10.6658L26.4826 13.125H28.8334ZM26.6668 15.2917H25.5834L21.7917 11.5C21.7917 10.7958 21.8893 10.1025 22.0734 9.43084C21.0226 9.70167 20.1667 10.4817 19.8092 11.5H13.1251C11.0342 11.5 9.33342 13.2008 9.33342 15.2917C9.33342 17.3283 10.6551 22.4958 11.5001 25.5833H13.6667V23.4167H20.1667V25.5833H22.3334L24.0234 20.0042L26.6668 19.1158V15.2917Z" fill="white"/>
</svg>
