<svg width="20" height="20" viewBox="0 0 20 20" fill="none" xmlns="http://www.w3.org/2000/svg">
<path d="M3.33341 17.5H11.3501C11.831 17.5003 12.3062 17.3963 12.7431 17.1954C13.18 16.9944 13.5682 16.7012 13.8809 16.3358L18.1326 11.3758C18.2216 11.2721 18.2838 11.1482 18.3136 11.0148C18.3434 10.8814 18.34 10.7428 18.3036 10.611C18.2672 10.4793 18.199 10.3586 18.1049 10.2594C18.0109 10.1603 17.8939 10.0858 17.7642 10.0425L16.1242 9.49583C15.7279 9.36699 15.3059 9.33784 14.8955 9.41095C14.4852 9.48406 14.0992 9.65718 13.7717 9.915L11.1176 12.0375L10.6034 11.0083C10.328 10.4536 9.90266 9.98701 9.37569 9.66152C8.84872 9.33603 8.24113 9.16461 7.62175 9.16666H3.33341C2.41425 9.16666 1.66675 9.91416 1.66675 10.8333V15.8333C1.66675 16.7525 2.41425 17.5 3.33341 17.5ZM3.33341 10.8333H7.62175C8.25758 10.8333 8.82841 11.1858 9.11258 11.7542L9.48508 12.5H5.83341V14.1667H10.8451C10.9733 14.165 11.0994 14.1336 11.2134 14.075L11.2159 14.0742L11.2192 14.0725H11.2217L11.2234 14.0717H11.2267L11.2276 14.0708C11.2351 14.0733 11.2301 14.07 11.2301 14.07C11.2384 14.07 11.2317 14.0692 11.2317 14.0692H11.2326L11.2342 14.0683L11.2367 14.0675L11.2384 14.0667L11.2401 14.0658L11.2426 14.065L11.2442 14.0642C11.2467 14.0642 11.2451 14.0633 11.2459 14.0633L11.2484 14.0617L11.2501 14.0608L11.2517 14.06L11.2542 14.0592L11.2559 14.0583H11.2567L11.2584 14.0575H11.2592L11.2609 14.0567L11.2626 14.0558C11.2701 14.055 11.2651 14.055 11.2651 14.055L11.2667 14.0542C11.2989 14.0348 11.3295 14.0131 11.3584 13.9892L14.8134 11.225C15.0317 11.0517 15.3326 10.9975 15.5967 11.0858L16.0609 11.2408L12.6167 15.26C12.4583 15.4399 12.2635 15.584 12.0451 15.6829C11.8267 15.7817 11.5898 15.833 11.3501 15.8333H3.33341V10.8333ZM13.3334 1.66666H13.3192C13.1834 1.66833 12.4809 1.69916 11.6667 2.25416C10.8742 1.71416 10.1884 1.67083 10.0267 1.6675L10.0017 1.66666H9.99841C9.33091 1.66666 8.70258 1.9275 8.23258 2.39833C7.76091 2.87083 7.50008 3.49833 7.50008 4.16666C7.50008 4.835 7.76091 5.4625 8.21758 5.92L11.0626 8.90833C11.1409 8.98959 11.2347 9.05421 11.3386 9.09832C11.4424 9.14243 11.5541 9.16513 11.6669 9.16505C11.7798 9.16498 11.8914 9.14213 11.9952 9.09787C12.099 9.05361 12.1928 8.98886 12.2709 8.9075L15.1009 5.93416C15.5734 5.4625 15.8334 4.835 15.8334 4.16666C15.8334 3.49833 15.5726 2.87083 15.1017 2.39916C14.8704 2.16629 14.5951 1.98163 14.2918 1.85589C13.9886 1.73016 13.6634 1.66584 13.3351 1.66666H13.3334ZM14.1667 4.16666C14.1667 4.38916 14.0801 4.59833 13.9076 4.77083L11.6667 7.125L9.41091 4.75583C9.25341 4.59833 9.16675 4.38916 9.16675 4.16666C9.16675 3.94416 9.25341 3.735 9.41175 3.57666C9.56244 3.42338 9.76764 3.33591 9.98258 3.33333C10.0034 3.33416 10.4009 3.36 10.8717 3.7375C10.9392 3.79166 11.0076 3.85333 11.0776 3.9225L11.6667 4.51166L12.2559 3.9225C12.3259 3.85333 12.3942 3.79166 12.4617 3.7375C12.9026 3.38333 13.2751 3.33916 13.3384 3.33416C13.447 3.33414 13.5546 3.35564 13.6548 3.3974C13.7551 3.43917 13.8461 3.50038 13.9226 3.5775C14.0801 3.735 14.1667 3.94416 14.1667 4.16666Z" fill="#16171B"/>
</svg>
