<svg width="24" height="22" viewBox="0 0 24 22" fill="none" xmlns="http://www.w3.org/2000/svg">
<path d="M22.5264 7.3872L20.8848 2.4612C20.6467 1.74418 20.1886 1.12044 19.5757 0.67861C18.9629 0.236779 18.2263 -0.000669847 17.4708 1.41933e-06H6.5292C5.77367 -0.000669847 5.03714 0.236779 4.42426 0.67861C3.81139 1.12044 3.35334 1.74418 3.1152 2.4612L1.4736 7.3872C1.03754 7.57017 0.665133 7.87771 0.403014 8.27132C0.140895 8.66492 0.000706907 9.1271 0 9.6V15.6C0 16.5036 0.5076 17.2824 1.2468 17.6916C1.2312 17.7708 1.2 17.8428 1.2 17.9256V20.4C1.2 20.7183 1.32643 21.0235 1.55147 21.2485C1.77652 21.4736 2.08174 21.6 2.4 21.6H3.6C3.91826 21.6 4.22348 21.4736 4.44853 21.2485C4.67357 21.0235 4.8 20.7183 4.8 20.4V18H19.2V20.4C19.2 20.7183 19.3264 21.0235 19.5515 21.2485C19.7765 21.4736 20.0817 21.6 20.4 21.6H21.6C21.9183 21.6 22.2235 21.4736 22.4485 21.2485C22.6736 21.0235 22.8 20.7183 22.8 20.4V17.9256C22.8 17.8428 22.7688 17.7696 22.7532 17.6916C23.1293 17.4866 23.4434 17.1843 23.6627 16.8164C23.882 16.4484 23.9985 16.0283 24 15.6V9.6C24 8.6052 23.3904 7.7508 22.5264 7.3872ZM2.4 15.6V9.6H21.6L21.6024 15.6H2.4ZM6.5292 2.4H17.4696C17.9868 2.4 18.4452 2.7288 18.6084 3.2208L19.9356 7.2H4.0644L5.3904 3.2208C5.47002 2.98175 5.62286 2.77383 5.82726 2.62651C6.03166 2.47919 6.27724 2.39994 6.5292 2.4Z" fill="#A9D3AB"/>
<path d="M5.39998 14.3998C6.39409 14.3998 7.19998 13.5939 7.19998 12.5998C7.19998 11.6057 6.39409 10.7998 5.39998 10.7998C4.40586 10.7998 3.59998 11.6057 3.59998 12.5998C3.59998 13.5939 4.40586 14.3998 5.39998 14.3998Z" fill="#A9D3AB"/>
<path d="M18.5999 14.3998C19.594 14.3998 20.3999 13.5939 20.3999 12.5998C20.3999 11.6057 19.594 10.7998 18.5999 10.7998C17.6058 10.7998 16.7999 11.6057 16.7999 12.5998C16.7999 13.5939 17.6058 14.3998 18.5999 14.3998Z" fill="#A9D3AB"/>
</svg>
