<svg width="20" height="27" viewBox="0 0 20 27" fill="none" xmlns="http://www.w3.org/2000/svg">
<path d="M18.6954 7.41179L12.4454 1.16179C12.3472 1.06365 12.2431 0.98408 12.1212 0.929892C11.9986 0.875416 11.8657 0.85 11.7143 0.85H2.78571C1.72073 0.85 0.85 1.72073 0.85 2.78571V24.2143C0.85 25.2793 1.72073 26.15 2.78571 26.15H17.0714C18.1364 26.15 19.0071 25.2793 19.0071 24.2143V8.14286C19.0071 7.99143 18.9817 7.85853 18.9272 7.73595C18.8731 7.61403 18.7935 7.50993 18.6954 7.41179ZM11.8643 7.99286V3.50499L16.3522 7.99286H11.8643ZM2.93571 24.0643V2.93571H9.77857V8.14286C9.77857 9.20784 10.6493 10.0786 11.7143 10.0786H16.9214V24.0643H2.93571Z" fill="#89B9FF" stroke="#89B9FF" stroke-width="0.3"/>
<path d="M4.57141 18.7071H4.42141V18.8571V20.6429V20.7929H4.57141H15.2857H15.4357V20.6429V18.8571V18.7071H15.2857H4.57141ZM4.57141 13.35H4.42141V13.5V15.2857V15.4357H4.57141H15.2857H15.4357V15.2857V13.5V13.35H15.2857H4.57141Z" fill="#89B9FF" stroke="#89B9FF" stroke-width="0.3"/>
</svg>
