<svg width="18" height="18" viewBox="0 0 18 18" fill="none" xmlns="http://www.w3.org/2000/svg">
<path d="M5.8125 3.75C5.4644 3.75 5.13056 3.88828 4.88442 4.13442C4.63828 4.38056 4.5 4.7144 4.5 5.0625V5.8125C4.5 6.537 5.088 7.125 5.8125 7.125H9.9375C10.2856 7.125 10.6194 6.98672 10.8656 6.74058C11.1117 6.49444 11.25 6.1606 11.25 5.8125V5.0625C11.25 4.7144 11.1117 4.38056 10.8656 4.13442C10.6194 3.88828 10.2856 3.75 9.9375 3.75H5.8125ZM5.625 5.0625C5.625 5.01277 5.64475 4.96508 5.67992 4.92992C5.71508 4.89475 5.76277 4.875 5.8125 4.875H9.9375C9.98723 4.875 10.0349 4.89475 10.0701 4.92992C10.1052 4.96508 10.125 5.01277 10.125 5.0625V5.8125C10.125 5.86223 10.1052 5.90992 10.0701 5.94508C10.0349 5.98025 9.98723 6 9.9375 6H5.8125C5.76277 6 5.71508 5.98025 5.67992 5.94508C5.64475 5.90992 5.625 5.86223 5.625 5.8125V5.0625ZM7.875 8.0625C7.62636 8.0625 7.3879 8.16127 7.21209 8.33709C7.03627 8.5129 6.9375 8.75136 6.9375 9C6.9375 9.24864 7.03627 9.4871 7.21209 9.66291C7.3879 9.83873 7.62636 9.9375 7.875 9.9375C8.12364 9.9375 8.3621 9.83873 8.53791 9.66291C8.71373 9.4871 8.8125 9.24864 8.8125 9C8.8125 8.75136 8.71373 8.5129 8.53791 8.33709C8.3621 8.16127 8.12364 8.0625 7.875 8.0625ZM6.9375 11.625C6.9375 11.3764 7.03627 11.1379 7.21209 10.9621C7.3879 10.7863 7.62636 10.6875 7.875 10.6875C8.12364 10.6875 8.3621 10.7863 8.53791 10.9621C8.71373 11.1379 8.8125 11.3764 8.8125 11.625C8.8125 11.8736 8.71373 12.1121 8.53791 12.2879C8.3621 12.4637 8.12364 12.5625 7.875 12.5625C7.62636 12.5625 7.3879 12.4637 7.21209 12.2879C7.03627 12.1121 6.9375 11.8736 6.9375 11.625ZM5.25 8.0625C5.00136 8.0625 4.7629 8.16127 4.58709 8.33709C4.41127 8.5129 4.3125 8.75136 4.3125 9C4.3125 9.24864 4.41127 9.4871 4.58709 9.66291C4.7629 9.83873 5.00136 9.9375 5.25 9.9375C5.49864 9.9375 5.7371 9.83873 5.91291 9.66291C6.08873 9.4871 6.1875 9.24864 6.1875 9C6.1875 8.75136 6.08873 8.5129 5.91291 8.33709C5.7371 8.16127 5.49864 8.0625 5.25 8.0625ZM4.3125 11.625C4.3125 11.3764 4.41127 11.1379 4.58709 10.9621C4.7629 10.7863 5.00136 10.6875 5.25 10.6875C5.49864 10.6875 5.7371 10.7863 5.91291 10.9621C6.08873 11.1379 6.1875 11.3764 6.1875 11.625C6.1875 11.8736 6.08873 12.1121 5.91291 12.2879C5.7371 12.4637 5.49864 12.5625 5.25 12.5625C5.00136 12.5625 4.7629 12.4637 4.58709 12.2879C4.41127 12.1121 4.3125 11.8736 4.3125 11.625ZM10.5 8.0625C10.2514 8.0625 10.0129 8.16127 9.83709 8.33709C9.66127 8.5129 9.5625 8.75136 9.5625 9C9.5625 9.24864 9.66127 9.4871 9.83709 9.66291C10.0129 9.83873 10.2514 9.9375 10.5 9.9375C10.7486 9.9375 10.9871 9.83873 11.1629 9.66291C11.3387 9.4871 11.4375 9.24864 11.4375 9C11.4375 8.75136 11.3387 8.5129 11.1629 8.33709C10.9871 8.16127 10.7486 8.0625 10.5 8.0625ZM9.5625 11.625C9.5625 11.3764 9.66127 11.1379 9.83709 10.9621C10.0129 10.7863 10.2514 10.6875 10.5 10.6875C10.7486 10.6875 10.9871 10.7863 11.1629 10.9621C11.3387 11.1379 11.4375 11.3764 11.4375 11.625C11.4375 11.8736 11.3387 12.1121 11.1629 12.2879C10.9871 12.4637 10.7486 12.5625 10.5 12.5625C10.2514 12.5625 10.0129 12.4637 9.83709 12.2879C9.66127 12.1121 9.5625 11.8736 9.5625 11.625ZM4.60275 1.5C3.97876 1.5 3.38033 1.74788 2.9391 2.1891C2.49788 2.63033 2.25 3.22876 2.25 3.85275V12.2723C2.25 12.8962 2.49788 13.4947 2.9391 13.9359C3.38033 14.3771 3.97876 14.625 4.60275 14.625H11.1472C11.7712 14.625 12.3697 14.3771 12.8109 13.9359C13.2521 13.4947 13.5 12.8962 13.5 12.2723V3.85275C13.5 3.22876 13.2521 2.63033 12.8109 2.1891C12.3697 1.74788 11.7712 1.5 11.1472 1.5H4.60275ZM3.375 3.85275C3.375 3.17475 3.92475 2.625 4.60275 2.625H11.1472C11.8252 2.625 12.375 3.17475 12.375 3.85275V12.2723C12.375 12.9503 11.8252 13.5 11.1472 13.5H4.60275C4.27713 13.5 3.96485 13.3706 3.7346 13.1404C3.50435 12.9102 3.375 12.5979 3.375 12.2723V3.85275ZM4.35 15.3652C4.522 15.7068 4.78556 15.9937 5.11123 16.1941C5.4369 16.3945 5.81187 16.5004 6.19425 16.5H11.4382C13.6132 16.5 15.3757 14.7375 15.3757 12.5625V5.4375C15.3758 5.05529 15.2697 4.68059 15.0692 4.3552C14.8687 4.02981 14.5817 3.76653 14.2402 3.59475C14.2477 3.6795 14.2507 3.76575 14.2507 3.85275V12.5625C14.2507 13.3084 13.9544 14.0238 13.427 14.5512C12.8995 15.0787 12.1842 15.375 11.4382 15.375H4.60275C4.51866 15.3748 4.43461 15.3715 4.35075 15.3652H4.35Z" fill="#16171B"/>
</svg>
