<svg width="19" height="19" viewBox="0 0 19 19" fill="none" xmlns="http://www.w3.org/2000/svg">
<path d="M14.4956 4.14161C15.6393 4.14161 16.5664 3.21448 16.5664 2.0708C16.5664 0.927131 15.6393 0 14.4956 0C13.352 0 12.4248 0.927131 12.4248 2.0708C12.4248 3.21448 13.352 4.14161 14.4956 4.14161Z" fill="#1D1F22"/>
<path d="M13.2293 9.2868C13.467 9.64099 13.808 9.91345 14.2058 10.0672C14.6037 10.2209 15.0393 10.2485 15.4534 10.1462L18.8868 9.28784L18.3867 7.27916L14.9533 8.13751L13.5255 5.99733C13.2204 5.54027 12.747 5.22241 12.2084 5.1131L8.22627 4.31584C7.78078 4.22643 7.31825 4.28618 6.9101 4.48585C6.50195 4.68553 6.1709 5.01403 5.96806 5.42061L4.25136 8.854L6.1037 9.78069L7.82039 6.34626L9.85703 6.75421L4.59097 15.5313H0V17.6021H4.59097C5.31369 17.6021 5.99394 17.2169 6.36669 16.5967L8.35259 13.2876L13.7046 14.3582L15.5849 20.0001L17.548 19.3447L15.6687 13.7038C15.5528 13.3575 15.3476 13.0479 15.0738 12.8061C14.8001 12.5644 14.4674 12.399 14.1094 12.3267L10.9628 11.6983L12.7976 8.63968L13.2293 9.2868Z" fill="#1D1F22"/>
</svg>
