<svg width="17" height="16" viewBox="0 0 17 16" fill="none" xmlns="http://www.w3.org/2000/svg">
<path d="M6.75 15.5C6.55109 15.5 6.36032 15.421 6.21967 15.2803C6.07902 15.1397 6 14.9489 6 14.75C6 14.5511 6.07902 14.3603 6.21967 14.2197C6.36032 14.079 6.55109 14 6.75 14H13C13.5304 14 14.0391 13.7893 14.4142 13.4142C14.7893 13.0391 15 12.5304 15 12V4C15 3.46957 14.7893 2.96086 14.4142 2.58579C14.0391 2.21071 13.5304 2 13 2H6.75C6.55109 2 6.36032 1.92098 6.21967 1.78033C6.07902 1.63968 6 1.44891 6 1.25C6 1.05109 6.07902 0.860322 6.21967 0.71967C6.36032 0.579018 6.55109 0.5 6.75 0.5H13C13.9283 0.5 14.8185 0.868749 15.4749 1.52513C16.1313 2.1815 16.5 3.07174 16.5 4V12C16.5 12.9283 16.1313 13.8185 15.4749 14.4749C14.8185 15.1313 13.9283 15.5 13 15.5H6.75ZM6.741 4.199C6.81335 4.13214 6.89816 4.08019 6.9906 4.04612C7.08303 4.01205 7.18127 3.99652 7.2797 4.00042C7.37813 4.00432 7.47484 4.02757 7.56428 4.06885C7.65373 4.11013 7.73417 4.16863 7.801 4.241L10.801 7.491C10.929 7.62957 11.0002 7.81132 11.0002 8C11.0002 8.18868 10.929 8.37043 10.801 8.509L7.801 11.759C7.73409 11.8313 7.6536 11.8897 7.56412 11.9309C7.47464 11.9721 7.37792 11.9952 7.27949 11.999C7.18106 12.0028 7.08284 11.9872 6.99045 11.9531C6.89806 11.9189 6.81329 11.8669 6.741 11.8C6.66871 11.7331 6.6103 11.6526 6.56912 11.5631C6.52793 11.4736 6.50477 11.3769 6.50097 11.2785C6.49328 11.0797 6.56487 10.886 6.7 10.74L8.538 8.749H0.75C0.551088 8.749 0.360322 8.66998 0.21967 8.52933C0.0790177 8.38868 0 8.19791 0 7.999C0 7.80009 0.0790177 7.60932 0.21967 7.46867C0.360322 7.32802 0.551088 7.249 0.75 7.249H8.537L6.699 5.259C6.63214 5.18665 6.58019 5.10184 6.54612 5.0094C6.51205 4.91697 6.49652 4.81873 6.50042 4.7203C6.50432 4.62187 6.52757 4.52516 6.56885 4.43572C6.61013 4.34627 6.66863 4.26583 6.741 4.199Z" fill="#16171B"/>
</svg>
