<svg width="12" height="5" viewBox="0 0 12 5" fill="none" xmlns="http://www.w3.org/2000/svg">
<path d="M9.66211 0.333984L11.4688 0.324219C11.4688 0.884115 11.3906 1.40169 11.2344 1.87695C11.0781 2.3457 10.8568 2.7526 10.5703 3.09766C10.2904 3.44271 9.95182 3.71289 9.55469 3.9082C9.16406 4.09701 8.73438 4.19141 8.26562 4.19141C7.71875 4.19141 7.23372 4.08398 6.81055 3.86914C6.39388 3.64779 5.94466 3.31576 5.46289 2.87305C5.16341 2.58659 4.88346 2.36849 4.62305 2.21875C4.36263 2.0625 4.08268 1.98438 3.7832 1.98438C3.49023 1.98438 3.23958 2.0625 3.03125 2.21875C2.82292 2.36849 2.66016 2.58333 2.54297 2.86328C2.42578 3.14323 2.36719 3.46875 2.36719 3.83984H0.511719C0.511719 3.27344 0.589844 2.75911 0.746094 2.29688C0.902344 1.82812 1.12044 1.42773 1.40039 1.0957C1.68685 0.757161 2.02539 0.496745 2.41602 0.314453C2.80664 0.132161 3.23633 0.0410156 3.70508 0.0410156C4.25195 0.0410156 4.74349 0.154948 5.17969 0.382812C5.6224 0.610677 6.07161 0.936198 6.52734 1.35938C6.83984 1.65885 7.12305 1.88346 7.37695 2.0332C7.63086 2.18294 7.90104 2.25781 8.1875 2.25781C8.48047 2.25781 8.73763 2.17643 8.95898 2.01367C9.18034 1.8444 9.35286 1.61328 9.47656 1.32031C9.60026 1.02734 9.66211 0.698568 9.66211 0.333984Z" fill="#3D3D3D"/>
</svg>
