<svg width="15" height="17" viewBox="0 0 15 17" fill="none" xmlns="http://www.w3.org/2000/svg">
<path d="M11.6667 16.6667H3.33333C2.89131 16.6667 2.46738 16.4911 2.15482 16.1785C1.84226 15.8659 1.66667 15.442 1.66667 15V4.16667H0V2.5H3.33333V1.66667C3.33333 1.22464 3.50893 0.800716 3.82149 0.488155C4.13405 0.175595 4.55797 0 5 0H10C10.442 0 10.8659 0.175595 11.1785 0.488155C11.4911 0.800716 11.6667 1.22464 11.6667 1.66667V2.5H15V4.16667H13.3333V15C13.3333 15.442 13.1577 15.8659 12.8452 16.1785C12.5326 16.4911 12.1087 16.6667 11.6667 16.6667ZM3.33333 4.16667V15H11.6667V4.16667H3.33333ZM5 1.66667V2.5H10V1.66667H5ZM10 13.3333H8.33333V5.83333H10V13.3333ZM6.66667 13.3333H5V5.83333H6.66667V13.3333Z" fill="#16171B"/>
</svg>
