<svg width="11" height="17" viewBox="0 0 11 17" fill="none" xmlns="http://www.w3.org/2000/svg">
<path d="M8.5 1V11M8.5 16V14.3333M2.66667 1V2.66667M2.66667 16V6" stroke="#16171B" stroke-width="1.66667" stroke-linecap="round"/>
<path d="M6.83334 12.6667C6.83334 13.5871 7.57953 14.3333 8.50001 14.3333C9.42048 14.3333 10.1667 13.5871 10.1667 12.6667C10.1667 11.7462 9.42048 11 8.50001 11C7.57953 11 6.83334 11.7462 6.83334 12.6667Z" stroke="#16171B" stroke-width="1.66667" stroke-linecap="round"/>
<path d="M0.999995 4.33317C0.999995 5.25365 1.74619 5.99984 2.66666 5.99984C3.58714 5.99984 4.33333 5.25365 4.33333 4.33317C4.33333 3.4127 3.58714 2.6665 2.66666 2.6665C1.74619 2.6665 0.999995 3.4127 0.999995 4.33317Z" stroke="#16171B" stroke-width="1.66667" stroke-linecap="round"/>
</svg>
