<svg width="18" height="15" viewBox="0 0 18 15" fill="none" xmlns="http://www.w3.org/2000/svg">
<path d="M10.2083 14C11.4939 14 12.7506 13.6188 13.8195 12.9046C14.8885 12.1903 15.7216 11.1752 16.2135 9.98744C16.7055 8.79972 16.8342 7.49279 16.5834 6.23191C16.3326 4.97104 15.7136 3.81285 14.8045 2.90381C13.8955 1.99477 12.7373 1.3757 11.4764 1.1249C10.2155 0.874095 8.90861 1.00282 7.72089 1.49479C6.53317 1.98676 5.51801 2.81988 4.80378 3.8888C4.08955 4.95772 3.70833 6.21442 3.70833 7.5V10.8583L1.75833 8.90834L1 9.66667L4.25 12.9167L7.5 9.66667L6.74167 8.90834L4.79167 10.8583V7.5C4.79167 6.42869 5.10935 5.38143 5.70454 4.49066C6.29973 3.5999 7.1457 2.90563 8.13546 2.49566C9.12523 2.08568 10.2143 1.97841 11.2651 2.18742C12.3158 2.39642 13.281 2.91231 14.0385 3.66984C14.796 4.42738 15.3119 5.39253 15.5209 6.44326C15.7299 7.49399 15.6227 8.5831 15.2127 9.57287C14.8027 10.5626 14.1084 11.4086 13.2177 12.0038C12.3269 12.599 11.2796 12.9167 10.2083 12.9167V14Z" fill="#1D1F22" stroke="#16171B"/>
</svg>
