<svg width="12" height="15" viewBox="0 0 12 15" fill="none" xmlns="http://www.w3.org/2000/svg">
<path d="M3.5 2.5V10C3.5 10.3315 3.6317 10.6495 3.86612 10.8839C4.10054 11.1183 4.41848 11.25 4.75 11.25H9.75C10.0815 11.25 10.3995 11.1183 10.6339 10.8839C10.8683 10.6495 11 10.3315 11 10V4.52625C11 4.35972 10.9667 4.19488 10.9021 4.0414C10.8375 3.88792 10.7428 3.7489 10.6238 3.6325L8.55188 1.60625C8.31835 1.37791 8.00473 1.25004 7.67813 1.25H4.75C4.41848 1.25 4.10054 1.3817 3.86612 1.61612C3.6317 1.85054 3.5 2.16848 3.5 2.5V2.5Z" stroke="#A2A2A6" stroke-width="1.5" stroke-linecap="round" stroke-linejoin="round"/>
<path d="M8.5 11.25V12.5C8.5 12.8315 8.3683 13.1495 8.13388 13.3839C7.89946 13.6183 7.58152 13.75 7.25 13.75H2.25C1.91848 13.75 1.60054 13.6183 1.36612 13.3839C1.1317 13.1495 1 12.8315 1 12.5V5.625C1 5.29348 1.1317 4.97554 1.36612 4.74112C1.60054 4.5067 1.91848 4.375 2.25 4.375H3.5" stroke="#A2A2A6" stroke-width="1.5" stroke-linecap="round" stroke-linejoin="round"/>
</svg>
