<svg width="12" height="17" viewBox="0 0 12 17" fill="none" xmlns="http://www.w3.org/2000/svg">
<path d="M3.5 3.50083V3.5M3.5 6.00083V6M6 6.00083V6M6 3.50083V3.5M8.5 3.50083V3.5M8.5 6.00083V6M3.5 8.50083V8.5M6 8.50083V8.5M11 14.3333V2.66667C11 2.22464 10.8244 1.80072 10.5118 1.48816C10.1993 1.17559 9.77536 1 9.33333 1H2.66667C2.22464 1 1.80072 1.17559 1.48816 1.48816C1.17559 1.80072 1 2.22464 1 2.66667V14.3333C1 14.7754 1.17559 15.1993 1.48816 15.5118C1.80072 15.8244 2.22464 16 2.66667 16H9.33333C9.77536 16 10.1993 15.8244 10.5118 15.5118C10.8244 15.1993 11 14.7754 11 14.3333Z" stroke="#1D1F22" stroke-width="1.66667" stroke-linecap="round" stroke-linejoin="round"/>
</svg>
