<svg width="253" height="136" viewBox="0 0 253 136" fill="none" xmlns="http://www.w3.org/2000/svg">
<path d="M192.338 86.512C187.772 87.0309 184.036 87.0828 180.923 86.8752C180.871 86.8752 180.819 86.8752 180.819 86.8752C180.507 86.8752 180.248 86.8234 179.989 86.8234C179.625 86.7715 179.262 86.7715 178.899 86.7196C178.639 86.6677 178.38 86.6677 178.172 86.6158C178.121 86.6158 178.069 86.6158 178.017 86.5639C177.809 86.512 177.55 86.512 177.342 86.4601C177.29 86.4601 177.238 86.4601 177.135 86.4082C176.668 86.3045 176.201 86.2526 175.734 86.1488C175.63 86.0969 175.474 86.0969 175.37 86.045C175.163 85.9931 175.007 85.9412 174.8 85.8894C174.54 85.8375 174.333 85.7856 174.125 85.6818C173.918 85.6299 173.71 85.578 173.502 85.4742C173.087 85.3705 172.724 85.2148 172.309 85.0591C172.102 85.0073 171.946 84.9035 171.738 84.8516C171.012 84.5921 170.389 84.2808 169.818 83.9695C169.455 83.7619 169.092 83.6063 168.677 83.4506C168.573 83.3987 168.417 83.3468 168.262 83.2949C168.002 83.1911 167.743 83.0874 167.483 82.9836C167.016 82.7761 166.549 82.6204 166.031 82.4128C165.823 82.3609 165.615 82.2572 165.408 82.2053C165.097 82.1015 164.785 81.9977 164.474 81.8939C164.111 81.7902 163.799 81.6864 163.436 81.5826C163.125 81.4788 162.762 81.4269 162.398 81.3232C162.035 81.2194 161.62 81.1156 161.257 81.0637C161.049 81.0118 160.842 80.9599 160.634 80.9081C159.804 80.7005 158.922 80.5448 157.988 80.3892C157.521 80.2854 157.002 80.2335 156.535 80.1297C156.275 80.0778 156.016 80.0778 155.757 80.0259C155.497 79.9741 155.238 79.9741 154.978 79.9222C154.771 79.8703 154.563 79.8703 154.356 79.8184C154.148 79.8184 153.94 79.7665 153.733 79.7665C153.422 79.7146 153.11 79.6627 152.747 79.6627C152.643 79.6627 152.488 79.6108 152.332 79.6108C152.021 79.559 151.709 79.559 151.398 79.5071C150.464 79.4033 149.478 79.2995 148.492 79.1957C136.35 78.1061 129.293 79.6108 125.09 79.559C124.987 79.559 124.883 79.559 124.727 79.559C124.52 79.559 124.312 79.559 124.105 79.559C124.053 79.559 124.001 79.559 123.949 79.559C123.741 79.559 123.586 79.559 123.378 79.559C122.496 79.5071 121.614 79.4552 120.784 79.2476C120.68 79.2476 120.576 79.1957 120.472 79.1438C120.369 79.1438 120.265 79.092 120.161 79.0401C119.85 78.9363 119.59 78.8325 119.331 78.6768C119.227 78.625 119.175 78.5731 119.123 78.5731C119.02 78.5212 118.968 78.4693 118.864 78.4174C118.812 78.3655 118.708 78.3136 118.656 78.2617C118.604 78.2099 118.553 78.158 118.501 78.1061C118.449 78.0542 118.345 78.0023 118.293 77.8985C118.241 77.8466 118.189 77.7947 118.189 77.7429C118.137 77.691 118.137 77.6391 118.086 77.6391C118.034 77.5872 117.982 77.5353 117.93 77.4315C117.878 77.3796 117.826 77.3277 117.826 77.224L117.774 77.1721C117.774 77.1721 117.774 77.1202 117.722 77.1202C117.619 76.9645 117.567 76.757 117.463 76.6013C117.411 76.4975 117.411 76.3937 117.359 76.29C117.255 75.9267 117.203 75.5635 117.152 75.1484C117.152 74.9928 117.152 74.8371 117.152 74.6814C117.152 74.4739 117.152 74.2663 117.203 74.0588C117.203 73.8512 117.255 73.6955 117.255 73.488C117.307 73.2804 117.307 73.0729 117.359 72.8653C117.463 72.3983 117.567 71.8794 117.722 71.3606C117.774 71.153 117.826 70.9973 117.878 70.7898C117.93 70.686 117.982 70.5303 118.034 70.4266C118.034 70.3747 118.086 70.3228 118.086 70.2709C118.137 70.1671 118.189 70.0115 118.241 69.9077C118.293 69.8558 118.293 69.8039 118.345 69.7001C118.397 69.5964 118.449 69.4926 118.501 69.4407C118.553 69.3369 118.604 69.2331 118.656 69.1812C118.708 69.1294 118.76 69.0256 118.76 68.9737C118.864 68.818 118.916 68.6624 119.02 68.5586C119.123 68.4029 119.279 68.2472 119.383 68.0916C119.487 67.9878 119.59 67.8321 119.694 67.7284C119.746 67.6765 119.746 67.6246 119.798 67.5727C119.902 67.417 120.057 67.3133 120.161 67.1576C120.317 67.0019 120.524 66.7944 120.732 66.6387C120.836 66.5349 120.939 66.4312 121.043 66.3793L121.095 66.3274C121.251 66.2236 121.406 66.0679 121.562 65.9641C121.718 65.8604 121.925 65.7047 122.081 65.6009C122.237 65.4972 122.444 65.3934 122.6 65.2896C123.119 64.9783 123.689 64.6669 124.312 64.4075C124.572 64.3037 124.831 64.1999 125.09 64.0962C125.869 63.7848 126.647 63.5254 127.425 63.3178C127.944 63.1622 128.463 63.0584 128.982 62.9027C129.242 62.8508 129.501 62.799 129.76 62.7471C130.279 62.6433 130.85 62.5395 131.369 62.4876C131.577 62.4357 131.732 62.4357 131.94 62.3838C133.912 62.1244 135.831 61.9687 137.388 61.865C143.718 61.5017 150.516 60.0489 152.851 59.1149C155.186 58.1809 157.261 55.5346 157.365 54.7043C157.417 53.8222 157.417 51.5391 155.393 48.0107C153.681 45.0531 150.308 41.8879 146.002 38.7227C145.586 38.7227 145.119 38.7227 144.756 38.7745C145.016 38.9821 145.275 39.1897 145.535 39.3453C150.205 42.8219 153.214 45.7795 154.719 48.4258C156.016 50.7089 156.691 52.9401 156.587 54.6524C156.483 55.2232 154.719 57.5582 152.591 58.4403C150.412 59.3224 143.718 60.7753 137.388 61.1385C135.831 61.2423 134.015 61.3461 132.095 61.6055L116.477 53.8222C116.269 54.2373 116.062 54.7043 115.802 55.2232C113 61.6574 108.227 76.4975 118.916 85.6299C125.557 91.2858 143.355 82.5166 142.525 103.013C142.11 113.235 149.997 119.357 159.856 122.108C160.634 122.315 161.412 122.523 162.191 122.678L174.592 116.4C174.644 116.4 174.696 116.348 174.748 116.348L190.107 108.617L192.338 107.475C195.348 105.97 197.216 102.909 197.216 99.536C197.216 96.2152 195.451 93.3094 192.494 91.8565L192.442 91.8047L184.347 87.7573C186.786 87.7573 189.484 87.6017 192.338 87.2903C203.39 86.045 204.117 86.3045 212.419 89.1583C213.353 89.4697 214.443 89.8329 215.584 90.248C216.881 90.6631 218.023 91.0782 219.113 91.4414L220.306 91.8565C220.462 91.649 220.669 91.3895 220.825 91.2339C219.372 90.7669 217.712 90.1442 215.844 89.5215C204.48 85.6299 204.895 85.111 192.338 86.512Z" fill="#F6F8E3"/>
<path d="M219.891 41.3688C213.976 37.2177 195.918 23.9343 192.546 20.1464C188.343 15.4245 185.177 15.2689 181.649 15.8915C180.196 16.151 177.965 15.9953 175.37 14.9575C172.776 13.9198 168.832 14.5943 163.747 17.2925C161.309 16.4104 158.818 15.4764 157.313 14.9056C157.158 14.8538 157.002 14.8019 156.846 14.75C160.167 18.2265 164.474 21.7549 168.781 23.0003C178.121 25.7504 185.696 28.8637 187.097 37.6847C188.446 46.0388 201.418 37.996 237.377 56.8316C239.245 55.5863 241.061 54.9117 242.826 54.8079C244.227 54.7561 245.472 55.1193 246.458 55.8976C241.632 52.1616 225.391 45.2086 219.891 41.3688Z" fill="#F6F8E3"/>
<path d="M91.1553 45.2087L34.493 73.6955L23.804 68.351L22.3511 67.6245L79.0134 39.1377L80.4663 39.8641L91.1553 45.2087Z" fill="#F3B753"/>
<path d="M123.015 83.3461C122.911 83.0867 122.6 82.9829 122.34 83.1386L91.4145 98.7051C91.155 98.8089 91.0513 99.1202 91.2069 99.3797C91.3107 99.5353 91.4664 99.691 91.6739 99.691C91.7777 99.691 91.8296 99.691 91.8815 99.6391L122.807 84.0726C123.015 83.9169 123.118 83.6056 123.015 83.3461Z" fill="#ABABB6"/>
<path d="M136.765 90.8698L117.255 100.677C116.995 100.781 116.892 101.092 117.047 101.351C117.151 101.507 117.307 101.663 117.514 101.663C117.618 101.663 117.67 101.663 117.722 101.611L137.232 91.8038C137.491 91.7001 137.595 91.3887 137.439 91.1293C137.336 90.8698 137.024 90.7661 136.765 90.8698Z" fill="#ABABB6"/>
<path d="M122.859 86.8745C122.755 86.615 122.444 86.5112 122.184 86.6669L94.8388 100.417C94.5794 100.521 94.4756 100.832 94.6312 101.092C94.735 101.248 94.8907 101.403 95.0982 101.403C95.202 101.403 95.2539 101.403 95.3058 101.351L122.651 87.6009C122.911 87.4452 123.014 87.1339 122.859 86.8745Z" fill="#ABABB6"/>
<path d="M192.493 92.0637L181.182 86.4079C181.13 86.356 181.078 86.356 181.026 86.356C180.974 86.356 180.974 86.356 180.922 86.356L180.87 86.8749V86.356C180.559 86.356 180.3 86.3041 180.04 86.3041C179.677 86.2522 179.314 86.2522 178.95 86.2003C178.691 86.2003 178.483 86.1484 178.276 86.0965L178.068 86.0446C177.861 85.9928 177.601 85.9928 177.394 85.9409L177.186 85.889C176.771 85.8371 176.304 85.7333 175.837 85.6295L175.474 85.5258C175.318 85.4739 175.111 85.422 174.955 85.422C174.747 85.3701 174.488 85.3182 174.28 85.2144C174.073 85.1625 173.865 85.1107 173.658 85.0069C173.243 84.9031 172.88 84.7474 172.516 84.6436C172.361 84.5918 172.153 84.5399 171.997 84.4361C171.427 84.1767 170.804 83.9172 170.078 83.6059C169.714 83.3983 169.351 83.2427 168.936 83.0351L168.78 82.9832C168.677 82.9313 168.625 82.9313 168.521 82.8794C168.261 82.7757 168.002 82.6719 167.743 82.5681C167.743 82.5681 167.743 82.5681 167.691 82.5681C167.587 82.5162 167.431 82.4643 167.327 82.4124C167.224 82.3606 167.12 82.3087 167.016 82.3087C166.757 82.2049 166.549 82.1011 166.29 82.0492C165.823 81.8936 165.304 81.7379 164.681 81.5303C164.318 81.4266 164.007 81.3228 163.591 81.219C163.28 81.1152 163.021 81.0633 162.709 80.9596L162.554 80.9077C162.19 80.8039 161.827 80.7001 161.412 80.6482C161.205 80.5964 160.997 80.5445 160.789 80.4926C159.907 80.285 159.025 80.1293 158.091 79.9737C157.676 79.9218 157.261 79.818 156.794 79.7661L156.586 79.7142C156.431 79.7142 156.275 79.6623 156.119 79.6623L154.978 79.5067C154.77 79.4548 154.563 79.4548 154.355 79.4029L153.733 79.351C153.421 79.2991 153.11 79.2472 152.747 79.2472L152.332 79.1954C152.02 79.1435 151.709 79.1435 151.398 79.0916C150.464 78.9878 149.478 78.884 148.44 78.7802C145.275 78.5208 142.525 78.417 139.982 78.417C136.35 78.417 133.34 78.6246 130.85 78.8321C131.213 75.7707 130.279 72.5536 129.086 70.8932C128.515 70.1148 127.84 69.6479 127.218 69.5441C125.142 69.2846 121.51 69.9592 118.604 70.6337V70.5818C118.656 70.4781 118.708 70.3743 118.76 70.2186C118.76 70.1667 118.812 70.1148 118.864 70.063C118.915 70.0111 118.915 69.9073 119.019 69.8035C119.071 69.7516 119.123 69.6479 119.123 69.596C119.123 69.596 119.123 69.5441 119.175 69.5441C119.227 69.4922 119.227 69.4403 119.279 69.3365C119.331 69.2327 119.434 69.0771 119.538 68.9733C119.642 68.8176 119.746 68.662 119.901 68.5063C120.005 68.4025 120.109 68.2988 120.213 68.1431L120.264 68.0912L120.316 68.0393C120.42 67.9355 120.524 67.7799 120.68 67.6761C120.835 67.5204 120.991 67.3648 121.198 67.2091C121.302 67.1053 121.406 67.0534 121.51 66.9496L121.562 66.8978C121.717 66.794 121.821 66.6902 122.029 66.5864C122.184 66.4827 122.34 66.3789 122.548 66.2751C122.703 66.1713 122.859 66.0675 123.066 65.9638C123.585 65.6524 124.104 65.393 124.675 65.1335C124.675 65.1335 124.675 65.1335 124.727 65.1335C124.986 65.0298 125.194 64.926 125.453 64.8222C126.18 64.5109 126.958 64.3033 127.736 64.0439H127.788C128.255 63.9401 128.722 63.7844 129.293 63.6807C129.553 63.6288 129.812 63.5769 130.071 63.525C130.59 63.4212 131.109 63.3175 131.628 63.2656C131.836 63.2137 131.991 63.2137 132.147 63.1618C132.355 63.1099 132.562 62.9542 132.562 62.7467C132.614 62.5391 132.51 62.2797 132.303 62.1759L76.1073 34.1042C70.659 31.3541 64.1211 31.406 58.6209 34.1561L10.9353 58.2324C9.17109 59.1145 8.08143 60.8787 8.08143 62.9023C8.08143 64.8741 9.17109 66.6383 10.9353 67.5204L14.9826 69.5441C14.3081 71.1007 14.1005 72.8131 14.4118 74.4735L10.9872 72.7612C6.57666 70.5819 5.59078 65.2892 7.87388 61.6051L7.45877 61.8127C7.14744 61.9683 6.83611 62.124 6.57666 62.3316C1.75103 65.5487 2.06236 73.0206 7.45877 75.7188L17.8884 80.9077L122.911 133.315C128.255 136.013 134.586 135.961 139.93 133.263L186.63 109.706C186.786 109.602 186.993 109.498 187.149 109.395L174.488 115.777H174.436L144.704 130.824C139.308 133.523 132.925 133.575 127.529 130.876L123.17 128.697C123.222 128.593 123.222 128.489 123.222 128.334C122.859 126.777 122.963 125.117 123.533 123.664L127.788 125.791C130.538 127.14 133.548 127.867 136.557 127.867C139.619 127.867 142.628 127.14 145.43 125.791L192.545 101.974C194.413 101.04 195.555 99.1724 195.555 97.0969C195.503 94.8657 194.361 92.9977 192.493 92.0637ZM185.644 92.9458C186.526 93.3609 187.045 94.243 187.045 95.2289C187.045 96.2148 186.526 97.045 185.644 97.512L142.11 119.357C137.44 121.692 131.836 121.744 127.166 119.357L111.755 111.678L167.276 83.7616L185.644 92.9458ZM151.398 80.0775C151.709 80.1293 152.02 80.1293 152.28 80.1812L152.695 80.2331C153.006 80.285 153.318 80.285 153.629 80.3369L154.251 80.3888C154.459 80.3888 154.667 80.4407 154.874 80.4926L156.016 80.6482C156.171 80.6482 156.327 80.7001 156.431 80.7001C156.95 80.8039 157.417 80.8558 157.884 80.9596C158.766 81.1152 159.7 81.2709 160.53 81.4784C160.738 81.5303 160.945 81.5822 161.153 81.6341C161.516 81.7379 161.931 81.7898 162.294 81.8936L162.45 81.9455C162.761 82.0492 163.073 82.1011 163.332 82.2049C163.695 82.3087 164.058 82.4124 164.37 82.5162H164.422L164.629 82.5681C164.837 82.62 165.044 82.7238 165.252 82.7757L166.082 83.1908L110.561 111.107L78.7018 95.177L116.892 75.9783C116.944 76.1339 116.944 76.2896 116.996 76.3934C116.996 76.3934 116.996 76.3934 116.996 76.4453C117.047 76.6009 117.047 76.7047 117.099 76.8085C117.151 77.016 117.255 77.2236 117.359 77.4311C117.411 77.483 117.411 77.5349 117.463 77.5868C117.514 77.6906 117.566 77.7425 117.566 77.7944C117.618 77.8463 117.67 77.95 117.722 78.0019L117.774 78.0538L117.878 78.1576C117.878 78.2095 117.93 78.2095 117.93 78.2095L117.981 78.2614L118.033 78.3133C118.085 78.3651 118.189 78.4689 118.241 78.5208C118.293 78.5727 118.397 78.6246 118.448 78.6765C118.552 78.7284 118.604 78.7803 118.656 78.8321C118.76 78.884 118.864 78.9878 118.915 78.9878C119.019 79.0397 119.071 79.0916 119.175 79.0916C119.434 79.2472 119.798 79.351 120.109 79.4548C120.213 79.5067 120.265 79.5067 120.368 79.5067H120.42H120.472C120.524 79.5067 120.576 79.5067 120.576 79.5586L120.68 79.6105C121.406 79.7661 122.288 79.8699 123.326 79.9218C123.533 79.9218 123.689 79.9218 123.949 79.9218C124 79.9218 124 79.9218 124.052 79.9218H124.986C125.142 79.9218 125.35 79.9218 125.505 79.9218C126.751 79.9218 128.152 79.818 129.916 79.6623C130.02 79.6623 130.175 79.6624 130.279 79.6105C134.534 79.2472 140.293 78.8321 148.388 79.5586C149.478 79.8699 150.464 79.9737 151.398 80.0775ZM127.218 70.53C127.581 70.5819 127.996 70.8932 128.359 71.464C129.449 72.9687 130.331 76.0301 129.916 78.884C127.944 79.0397 126.387 79.1435 125.09 79.1435H124.156H124.104H124C123.793 79.1435 123.637 79.1435 123.43 79.1435C122.444 79.0916 121.614 78.9878 120.991 78.8321L120.68 78.7284C120.576 78.7284 120.524 78.6765 120.42 78.6246C120.161 78.5208 119.901 78.417 119.642 78.3133C119.59 78.2614 119.486 78.2614 119.434 78.2095C119.382 78.1576 119.33 78.1576 119.227 78.0538C119.175 78.0019 119.123 78.0019 119.071 77.95C119.071 77.95 119.019 77.95 119.019 77.8981C118.967 77.8462 118.967 77.8463 118.915 77.7944C118.864 77.7425 118.812 77.6906 118.76 77.6387L118.708 77.5868L118.656 77.5349L118.552 77.4311C118.5 77.3793 118.5 77.3274 118.448 77.2755C118.397 77.2236 118.396 77.1717 118.396 77.1717L118.345 77.0679C118.241 76.9123 118.189 76.7566 118.137 76.6009C118.085 76.4971 118.085 76.3934 118.033 76.3415C117.93 76.0301 117.878 75.6669 117.878 75.3037C117.878 75.148 117.878 75.0443 117.878 74.8886C117.878 74.681 117.878 74.4735 117.878 74.2659C117.878 74.1103 117.93 73.9027 117.93 73.7471C117.93 73.5395 117.981 73.3838 118.033 73.1763C118.085 72.7612 118.189 72.3461 118.345 71.8272C122.444 70.7375 125.505 70.3224 127.218 70.53ZM120.991 65.9638C120.939 65.9638 120.939 66.0157 120.887 66.0676C120.783 66.1713 120.68 66.2751 120.576 66.327C120.368 66.4827 120.161 66.6902 120.005 66.8459C119.849 67.0015 119.746 67.1053 119.59 67.3129C119.538 67.3648 119.538 67.4167 119.486 67.4167C119.382 67.5723 119.227 67.6761 119.175 67.7799C119.019 67.9355 118.915 68.1431 118.812 68.2988C118.708 68.4544 118.604 68.6101 118.5 68.7657C118.448 68.8695 118.397 68.9214 118.345 69.0252C118.293 69.129 118.241 69.2327 118.189 69.2846C118.137 69.3884 118.085 69.4922 118.033 69.596C117.981 69.6997 117.93 69.7516 117.93 69.8035C117.878 69.9073 117.826 70.063 117.774 70.1667C117.722 70.2186 117.722 70.2705 117.722 70.3743C117.67 70.53 117.618 70.6337 117.566 70.7894C117.514 70.997 117.411 71.2045 117.359 71.4121C117.255 71.7234 117.203 71.9828 117.151 72.2423C117.099 72.5017 117.047 72.7612 116.996 72.9687C116.944 73.1763 116.944 73.3838 116.892 73.5914C116.84 73.7989 116.84 74.0065 116.84 74.1622C116.84 74.3697 116.788 74.6292 116.788 74.8367C116.788 74.8886 116.788 74.9405 116.788 74.9405L77.5602 94.6581L17.4733 64.6665C16.5393 64.1996 16.0204 63.3174 16.0204 62.3316C16.0204 61.2938 16.5393 60.4117 17.4733 59.9447L24.4263 56.4682L25.6717 57.0908C27.9029 58.2324 30.6011 58.1805 32.8323 57.0908L57.8426 44.5338C58.6209 44.1187 59.1398 43.3404 59.1398 42.4583C59.1398 41.5761 58.6209 40.7459 57.8426 40.3308L57.2199 40.0195L62.9276 37.1656C66.3004 35.4533 70.3477 35.4533 73.7205 37.1656L126.232 63.3693C125.817 63.525 125.453 63.6288 125.09 63.7845C124.831 63.8882 124.571 63.992 124.312 64.0958C124.312 64.0958 124.26 64.0958 124.26 64.1477C123.637 64.4071 123.118 64.7184 122.599 65.0298C122.392 65.1336 122.236 65.2373 122.029 65.393C121.821 65.4968 121.665 65.6524 121.51 65.7562C121.302 65.7043 121.095 65.86 120.991 65.9638ZM122.081 128.074L21.4687 77.8462L15.3977 74.8367C15.4496 74.7329 15.4496 74.6292 15.4496 74.5254C15.1383 72.9687 15.2939 71.3083 15.9166 69.8554L122.548 123.093C121.925 124.65 121.717 126.362 122.081 128.074ZM192.026 100.885L144.912 124.702C139.671 127.348 133.444 127.348 128.203 124.754L123.43 122.367L15.9166 68.662L11.4023 66.4308C9.94942 65.7043 9.1192 64.3552 9.1192 62.7467C9.1192 61.1381 9.94942 59.7371 11.4023 59.0107L59.0879 34.9344C61.6823 33.6372 64.5362 32.9626 67.3901 32.9626C70.192 32.9626 73.0459 33.5853 75.6403 34.8825L130.383 62.2278C130.175 62.2797 130.02 62.2797 129.812 62.3316C129.553 62.3835 129.293 62.4354 129.034 62.4872C128.515 62.591 128.048 62.6948 127.633 62.8505L74.1356 36.1278C70.4515 34.3117 66.0928 34.3117 62.4088 36.1278L55.767 39.4487C55.6114 39.5525 55.4557 39.7082 55.4557 39.9157C55.4557 40.1233 55.5595 40.2789 55.767 40.3827L57.3237 41.161C57.7907 41.3686 58.0501 41.8356 58.0501 42.3545C58.0501 42.8734 57.7907 43.2885 57.3237 43.5479L32.3134 56.1049C30.3416 57.0908 28.0585 57.0908 26.0868 56.1049L24.6339 55.3785C24.4782 55.3266 24.3225 55.3266 24.1669 55.3785L17.0063 58.9588C15.7609 59.5815 14.9826 60.8787 14.9826 62.2797C14.9826 63.6807 15.7609 64.926 17.0063 65.5487L79.4282 96.6818L109.264 111.574L110.354 112.093L126.699 120.239C129.189 121.485 131.888 122.107 134.638 122.107C137.388 122.107 140.086 121.485 142.628 120.239L186.163 98.3941C187.356 97.7715 188.135 96.578 188.135 95.177C188.135 93.8279 187.356 92.5826 186.163 91.9599L175.214 86.5116H175.266L175.63 86.6154C176.148 86.7192 176.615 86.823 177.031 86.8749L177.238 86.9267C177.446 86.9786 177.705 86.9786 177.913 87.0305C177.965 87.0305 177.965 87.0305 178.016 87.0305H178.068C178.328 87.0824 178.587 87.0824 178.795 87.1343C179.158 87.1862 179.521 87.2381 179.884 87.2381C180.144 87.2381 180.455 87.29 180.715 87.29H180.767L191.974 92.8939C193.479 93.6723 194.413 95.1251 194.413 96.8375C194.465 98.6536 193.583 100.106 192.026 100.885Z" fill="#ABABB6"/>
<path d="M99.042 3.48978C100.184 4.00866 102.986 4.7351 105.061 5.30588C105.424 5.40965 105.839 5.46154 106.203 5.46154C107.396 5.46154 108.538 4.99455 109.42 4.16433L109.99 3.64545C110.198 3.43789 110.198 3.12656 109.99 2.919C109.783 2.71145 109.472 2.71145 109.264 2.919L108.693 3.43789C107.759 4.31999 106.514 4.63133 105.321 4.32C102.363 3.54167 100.339 2.97089 99.4571 2.55578C99.1458 2.40012 98.8345 2.19257 98.8863 1.46613C98.8863 1.1548 98.6788 0.947239 98.4193 0.89535C98.108 0.843462 97.9005 1.1029 97.8486 1.36234C97.7967 2.34823 98.2118 3.07467 99.042 3.48978Z" fill="#ABABB6"/>
<path d="M114.142 38.3589C114.193 38.3589 114.245 38.4108 114.349 38.4108C114.453 38.4108 114.557 38.3589 114.66 38.307C119.849 34.6748 120.783 33.689 120.991 33.1701C121.406 32.0804 121.406 30.8351 120.887 29.486C120.835 29.3303 120.68 29.2265 120.524 29.1747C120.368 29.1228 120.213 29.1747 120.057 29.2784C114.401 33.9484 114.142 34.5192 114.038 34.7786C113.726 35.4013 113.571 36.7504 113.882 37.9957C113.882 38.1514 113.986 38.307 114.142 38.3589ZM114.92 35.1937C115.024 34.9862 115.75 34.156 120.057 30.5238C120.213 31.1983 120.264 31.9766 119.953 32.7031C119.849 32.9106 119.175 33.7408 114.66 36.906C114.66 36.1796 114.816 35.5051 114.92 35.1937Z" fill="#ABABB6"/>
<path d="M248.118 56.7791C246.821 55.0668 245.005 54.2365 242.825 54.2884C236.339 54.5479 228.245 63.4208 224.82 74.1618C222.589 81.1667 222.796 87.6009 225.339 90.9736C226.584 92.5822 228.296 93.4643 230.32 93.4643C230.424 93.4643 230.528 93.4643 230.579 93.4643C237.066 93.2048 245.16 84.3319 248.585 73.591C250.868 66.6379 250.66 60.2037 248.118 56.7791ZM247.651 73.2796C244.33 83.6055 236.702 92.1671 230.579 92.4265C228.763 92.4784 227.259 91.8039 226.169 90.351C223.782 87.2377 223.678 81.1667 225.806 74.4731C229.127 64.1472 236.754 55.5856 242.877 55.3262C244.693 55.2743 246.198 55.9489 247.288 57.4017C249.674 60.5669 249.778 66.6379 247.651 73.2796Z" fill="#ABABB6"/>
<path d="M35.5305 51.7463C35.6862 51.8501 35.8937 51.902 36.1013 51.902C36.3088 51.902 36.5164 51.8501 36.6721 51.7463L44.2478 47.9585C44.6629 47.7509 44.9223 47.2839 44.9223 46.8169C44.9223 46.3499 44.6629 45.8829 44.2478 45.6753C43.8846 45.5197 43.4695 45.5197 43.1062 45.6753L35.5305 49.4632C35.1154 49.6708 34.856 50.1378 34.856 50.6048C34.856 51.0718 35.1154 51.5388 35.5305 51.7463ZM35.9975 50.3972L43.5732 46.6093C43.6251 46.6093 43.6251 46.6093 43.677 46.6093C43.7289 46.6093 43.7289 46.6093 43.7808 46.6093C43.8846 46.6612 43.8846 46.765 43.8846 46.8169C43.8846 46.8688 43.8846 46.9726 43.7808 47.0244L36.2051 50.8123C36.1532 50.8642 36.0494 50.8642 35.9975 50.8123C35.8937 50.7604 35.8937 50.6566 35.8937 50.6048C35.8937 50.5529 35.8937 50.4491 35.9975 50.3972Z" fill="#ABABB6"/>
<path d="M24.2707 75.0961L20.3272 73.1243C19.9121 72.9168 19.497 72.9686 19.1338 73.1762C18.7705 73.3838 18.563 73.7989 18.563 74.214C18.563 74.681 18.8224 75.0961 19.2375 75.3555L23.1811 77.3273C23.3367 77.4311 23.5443 77.483 23.7518 77.483C23.9594 77.483 24.2188 77.4311 24.4264 77.2754C24.7896 77.0679 24.9972 76.6527 24.9972 76.2376C24.9453 75.7187 24.6858 75.3036 24.2707 75.0961ZM23.8037 76.3933C23.7518 76.3933 23.7 76.4452 23.5962 76.3933L19.6527 74.4215C19.6008 74.3696 19.5489 74.3177 19.5489 74.214C19.5489 74.1102 19.6008 74.0583 19.6527 74.0583C19.6527 74.0583 19.7045 74.0064 19.7564 74.0064C19.8083 74.0064 19.8083 74.0064 19.8602 74.0064L23.8037 75.9782C23.8556 76.0301 23.9075 76.082 23.9075 76.1857C23.9075 76.3414 23.8556 76.3933 23.8037 76.3933Z" fill="#ABABB6"/>
<path d="M38.5922 81.582L30.6013 77.5866C30.1343 77.3271 29.5636 77.379 29.0966 77.6385C28.6296 77.8979 28.3701 78.4168 28.3701 78.9357C28.3701 79.5065 28.6814 80.0772 29.2522 80.3367L37.2431 84.3321C37.4506 84.4359 37.7101 84.4878 37.9176 84.4878C38.177 84.4878 38.4884 84.384 38.7478 84.2283C39.2148 83.9689 39.4743 83.45 39.4743 82.9311C39.4743 82.4122 39.1629 81.8415 38.5922 81.582ZM38.177 83.3981C38.1252 83.45 37.9176 83.5538 37.6582 83.3981L29.6673 79.4027C29.5117 79.2989 29.4079 79.1432 29.4079 78.9357C29.4079 78.6762 29.5636 78.5206 29.6673 78.5206C29.7192 78.4687 29.823 78.4168 29.9268 78.4168C29.9787 78.4168 30.0824 78.4168 30.1343 78.4687L38.1252 82.4641C38.2808 82.5679 38.3846 82.7236 38.3846 82.9311C38.4365 83.2424 38.2808 83.3981 38.177 83.3981Z" fill="#ABABB6"/>
<path d="M50.7857 87.6532L42.8987 83.7096C42.4317 83.4502 41.8609 83.5021 41.3939 83.7615C40.9269 84.021 40.6675 84.5399 40.6675 85.0587C40.6675 85.6295 40.9788 86.2003 41.5496 86.4597L49.4366 90.4033C49.6442 90.507 49.9036 90.5589 50.1112 90.5589C50.3706 90.5589 50.682 90.4551 50.9414 90.2995C51.4084 90.04 51.6679 89.5211 51.6679 89.0023C51.6679 88.4834 51.3046 87.9645 50.7857 87.6532ZM50.3706 89.5211C50.3188 89.573 50.1112 89.6768 49.8518 89.5211L41.9647 85.5776C41.809 85.4738 41.7053 85.3182 41.7053 85.1106C41.7053 84.8512 41.8609 84.6955 41.9647 84.6955C42.0166 84.6436 42.1204 84.5917 42.2241 84.5917C42.276 84.5917 42.3798 84.5917 42.4317 84.6436L50.3188 88.5872C50.4744 88.6909 50.5782 88.8466 50.5782 89.0541C50.6301 89.3136 50.4225 89.4693 50.3706 89.5211Z" fill="#ABABB6"/>
<path d="M47.3093 46.1938C48.347 46.1938 49.1254 45.6749 49.1254 44.9484C49.1254 44.222 48.347 43.7031 47.3093 43.7031C46.2715 43.7031 45.4932 44.222 45.4932 44.9484C45.4932 45.6749 46.2715 46.1938 47.3093 46.1938ZM47.3093 44.7928C47.6725 44.7928 47.9319 44.8966 48.0357 45.0003C47.9319 45.1041 47.6725 45.2079 47.3093 45.2079C46.946 45.2079 46.6866 45.1041 46.5828 45.0003C46.6347 44.8966 46.8942 44.7928 47.3093 44.7928Z" fill="#ABABB6"/>
<path d="M156.587 120.654L148.752 124.597C148.388 124.805 148.129 125.168 148.129 125.583C148.129 125.947 148.336 126.31 148.648 126.517C148.803 126.621 149.011 126.673 149.219 126.673C149.374 126.673 149.53 126.621 149.686 126.569L157.521 122.626C157.884 122.418 158.143 122.055 158.143 121.64C158.143 121.277 157.936 120.913 157.625 120.706C157.313 120.498 156.898 120.498 156.587 120.654ZM157.106 121.692L149.27 125.635L149.219 125.583C149.219 125.583 149.219 125.531 149.27 125.531L157.158 121.588C157.106 121.588 157.106 121.64 157.106 121.692C157.106 121.64 157.106 121.692 157.106 121.692Z" fill="#ABABB6"/>
<path d="M187.564 105.762C187.253 105.554 186.837 105.554 186.526 105.71L179.106 109.446C178.743 109.654 178.483 110.017 178.483 110.432C178.483 110.795 178.691 111.158 179.002 111.366C179.158 111.47 179.366 111.522 179.573 111.522C179.729 111.522 179.884 111.47 180.04 111.418L187.46 107.682C187.823 107.474 188.083 107.111 188.083 106.696C188.083 106.281 187.875 105.918 187.564 105.762ZM187.045 106.696L179.625 110.432L179.884 110.899L179.573 110.38C179.573 110.38 179.573 110.328 179.625 110.328L187.097 106.592C187.045 106.644 187.045 106.644 187.045 106.696Z" fill="#ABABB6"/>
<path d="M170.025 113.805L166.445 115.621C165.978 115.829 165.719 116.296 165.719 116.815C165.719 117.282 165.978 117.697 166.341 117.956C166.549 118.112 166.808 118.164 167.016 118.164C167.224 118.164 167.431 118.112 167.639 118.008L171.219 116.192C171.686 115.984 171.945 115.517 171.945 114.998C171.945 114.531 171.686 114.116 171.323 113.857C170.908 113.649 170.441 113.597 170.025 113.805ZM170.908 114.998C170.908 115.102 170.856 115.206 170.752 115.258L167.172 117.074C167.068 117.126 166.912 117.074 166.912 117.074C166.86 117.074 166.757 116.97 166.757 116.815C166.757 116.711 166.808 116.607 166.912 116.555L170.493 114.739C170.544 114.739 170.596 114.687 170.596 114.687C170.648 114.687 170.7 114.739 170.752 114.739C170.804 114.791 170.908 114.843 170.908 114.998Z" fill="#ABABB6"/>
<path d="M161.205 119.097C161.153 119.409 161.257 119.772 161.464 119.979C161.62 120.187 161.827 120.239 162.087 120.239C162.606 120.239 163.021 119.824 163.073 119.201C163.125 118.89 163.021 118.527 162.813 118.319C162.658 118.111 162.45 118.06 162.191 118.06C161.672 118.06 161.257 118.527 161.205 119.097Z" fill="#ABABB6"/>
<path d="M173.762 112.819C173.71 113.13 173.814 113.494 174.021 113.701C174.177 113.909 174.384 113.961 174.644 113.961C175.163 113.961 175.578 113.545 175.63 112.923C175.682 112.611 175.578 112.248 175.37 112.041C175.215 111.833 175.007 111.781 174.748 111.781C174.281 111.833 173.814 112.248 173.762 112.819Z" fill="#ABABB6"/>
<path d="M97.0186 88.6907L101.17 88.8982L104.231 89.8841C104.283 89.8841 104.335 89.8841 104.387 89.8841C104.542 89.8841 104.698 89.8322 104.802 89.6766C104.958 89.5209 104.958 89.3133 104.854 89.1058L103.038 85.4217L102.986 85.3698C102.986 85.3179 102.934 85.3179 102.934 85.266C102.882 85.2141 102.882 85.2141 102.83 85.2141L102.778 85.1622C102.726 85.1622 102.726 85.1622 102.674 85.1104C102.623 85.1104 102.623 85.1104 102.571 85.1104C102.519 85.1104 102.519 85.1104 102.467 85.1104C102.415 85.1104 102.415 85.1104 102.363 85.1104L96.8629 87.601C96.6553 87.7048 96.4997 87.9123 96.5516 88.1718C96.6034 88.535 96.811 88.6907 97.0186 88.6907ZM102 88.068L102.571 86.8746L103.401 88.4831L102 88.068ZM101.481 86.7189L100.962 87.8086L99.2498 87.7567L101.481 86.7189Z" fill="#ABABB6"/>
<path d="M94.2683 93.9834C95.7212 93.9834 97.0184 93.4646 97.6411 92.6862L99.3015 92.1155C99.5091 92.0636 99.6648 91.8041 99.6648 91.5966C99.6648 91.3371 99.4572 91.1815 99.2496 91.1296L97.8487 90.8701C97.3298 89.9361 95.9288 89.3135 94.2683 89.3135C92.1409 89.3135 90.4805 90.3512 90.4805 91.6485C90.4805 92.9457 92.1409 93.9834 94.2683 93.9834ZM94.2683 90.3512C95.7212 90.3512 96.8109 90.922 96.9665 91.4928C97.0184 91.5966 97.0703 91.7004 97.1741 91.7522C97.0703 91.8041 96.9665 91.856 96.9146 91.9598C96.6033 92.4268 95.6693 92.8938 94.2683 92.8938C92.7117 92.8938 91.5182 92.2192 91.5182 91.5966C91.5182 90.9739 92.7117 90.3512 94.2683 90.3512Z" fill="#ABABB6"/>
<path d="M75.7965 46.4535C75.6927 46.1941 75.3814 46.0903 75.1219 46.246L40.4604 63.6805C40.2009 63.7843 40.0972 64.0957 40.2528 64.3551C40.3566 64.5108 40.5123 64.6664 40.7198 64.6664C40.8236 64.6664 40.8755 64.6664 40.9274 64.6145L75.5889 47.18C75.8484 47.0243 75.9522 46.713 75.7965 46.4535Z" fill="white"/>
<path d="M34.8044 64.355C31.9506 64.355 29.6675 65.6522 29.6675 67.2089C29.6675 68.7655 31.9506 70.0627 34.8044 70.0627C37.6583 70.0627 39.9414 68.7655 39.9414 67.2089C39.9414 65.6522 37.6583 64.355 34.8044 64.355Z" fill="white"/>
<path d="M110.354 107.682C113.392 107.682 115.854 106.311 115.854 104.621C115.854 102.93 113.392 101.559 110.354 101.559C107.317 101.559 104.854 102.93 104.854 104.621C104.854 106.311 107.317 107.682 110.354 107.682Z" fill="#E1DFE6"/>
<path d="M86.4855 94.6581C83.3203 93.309 81.6599 95.5402 84.6175 96.5779C86.2261 97.1487 88.3016 97.0968 89.9102 96.8374C90.5328 95.9553 90.8442 94.7618 90.0658 93.8278C88.6129 92.0117 84.4619 92.6863 86.4855 94.6581Z" fill="#E1DFE6"/>
<path d="M250.401 63.1617C250.194 59.7371 249.104 57.1426 247.34 55.586C247.288 55.5341 247.288 55.4822 247.236 55.4822C247.184 55.4303 247.132 55.4303 247.08 55.3784C244.538 53.4067 238.726 50.449 233.122 47.647C228.089 45.1045 222.952 42.5101 220.358 40.694C213.872 36.1797 196.333 23.1556 193.168 19.6272C188.965 14.9572 185.592 14.4383 181.545 15.1129C180.767 15.2686 178.691 15.4242 175.682 14.2308C172.776 13.0892 168.78 13.8157 163.747 16.462C161.776 15.7356 159.181 14.8016 157.624 14.1789C157.469 14.127 157.313 14.0751 157.157 14.0232C153.006 12.4666 148.959 12.2071 142.577 15.7356C139.775 14.5421 136.973 13.3487 134.534 12.259C134.223 12.1034 103.141 -1.38766 99.0941 0.117108C97.3818 0.739771 95.9808 2.65965 95.6176 4.94275C95.1506 7.79662 96.2922 10.5467 98.7309 12.5185C101.222 14.5421 106.981 17.4479 113.675 20.8206C116.892 22.4292 120.368 24.1934 123.689 25.9576C122.807 26.6841 121.354 27.8256 119.798 29.0709C114.09 33.7928 113.83 34.3636 113.675 34.6749C113.364 35.3494 113.156 36.6985 113.467 38.0476C113.779 39.4486 114.868 41.7836 118.604 42.2506C119.175 42.3025 119.746 42.3544 120.317 42.3544C123.741 42.3544 127.166 41.0572 131.421 38.1514C132.043 39.0854 133.392 40.5902 135.676 41.3166C136.558 41.5761 137.492 41.7317 138.478 41.7317C140.657 41.7317 143.096 41.0053 145.742 39.6043C150.256 42.9771 153.214 45.8828 154.719 48.5291C156.016 50.8122 156.69 53.0434 156.587 54.7558C156.483 55.3265 154.719 57.6615 152.591 58.5436C150.412 59.4257 143.718 60.8786 137.388 61.2418C135.831 61.3456 134.015 61.4494 132.095 61.7088L76.1075 33.7409C70.5554 30.9908 63.9656 30.9908 58.4135 33.7928L10.7279 57.8691C10.7279 57.8691 10.676 57.8691 10.676 57.921H10.6241C9.69016 58.388 8.80805 59.0106 8.08161 59.7889C7.71839 60.1522 7.40706 60.6192 7.09573 61.0343C5.79851 63.1098 5.43529 65.6524 6.10984 67.9873C6.78439 70.3223 8.34105 72.1903 10.5204 73.28L21.0537 78.5207L127.01 131.447C129.812 132.848 132.874 133.523 135.935 133.523C138.996 133.523 142.11 132.796 144.912 131.395L174.592 116.399C174.644 116.399 174.696 116.347 174.748 116.347L190.107 108.616L192.338 107.475C195.347 105.97 197.215 102.908 197.215 99.5356C197.215 96.2147 195.451 93.309 192.494 91.8561L192.442 91.8042L184.347 87.7569C186.786 87.7569 189.484 87.6012 192.338 87.2899C203.39 86.0446 204.065 86.304 212.419 89.1579C213.353 89.4692 214.391 89.8324 215.584 90.2475C216.881 90.6626 218.023 91.0777 219.112 91.441L220.565 91.9599C224.561 93.309 227.155 94.1392 229.49 94.1392C231.514 94.1392 233.382 93.5165 235.717 92.0636C235.769 92.0117 235.82 91.9598 235.872 91.908C241.165 88.5352 246.146 81.634 248.741 73.6951C250.09 69.9591 250.609 66.275 250.401 63.1617ZM118.916 40.694C116.788 40.4345 115.491 39.4486 115.128 37.6844C114.868 36.5948 115.076 35.6089 115.231 35.3494C115.335 35.1938 116.062 34.3117 120.939 30.2644C122.755 28.7596 124.52 27.3586 125.298 26.7359C126.906 27.618 128.463 28.4483 129.916 29.3304C132.043 30.5757 134.015 31.7691 135.831 32.8588C134.223 34.2079 132.77 35.4013 131.369 36.3872C126.336 39.9156 122.652 41.161 118.916 40.694ZM136.298 39.8119C134.378 39.1892 133.289 37.9439 132.77 37.2174C134.119 36.2315 135.572 35.0381 137.128 33.7409C139.93 35.5051 142.369 37.1137 144.445 38.5665C141.331 40.1232 138.581 40.5383 136.298 39.8119ZM195.814 99.5356C195.814 102.338 194.258 104.828 191.767 106.074L189.484 107.215L174.229 114.895C174.177 114.895 174.125 114.946 174.073 114.946L144.341 129.994C139.204 132.589 133.029 132.589 127.84 130.046L21.884 77.1197L11.3506 71.879C9.53449 70.9969 8.28916 69.4402 7.71839 67.5722C7.14761 65.6524 7.45895 63.5249 8.54861 61.8645C8.80805 61.5013 9.06749 61.1381 9.32694 60.8267C9.9496 60.2041 10.6241 59.6852 11.4025 59.2701C11.4025 59.2701 11.4544 59.2701 11.4544 59.2182H11.5063L59.1918 35.1419C64.2769 32.5475 70.3998 32.5475 75.4849 35.09L129.553 62.072C129.345 62.1239 129.138 62.1758 128.93 62.2277C128.359 62.3315 127.789 62.4872 127.322 62.6428C126.491 62.9023 125.661 63.1617 124.883 63.473C124.623 63.5768 124.364 63.6806 124.104 63.7844C123.482 64.0438 122.859 64.3551 122.34 64.6665C122.133 64.7702 121.977 64.874 121.769 65.0297C121.562 65.1335 121.406 65.2891 121.251 65.3929C121.095 65.4967 120.887 65.6524 120.732 65.7561C120.732 65.7561 120.68 65.808 120.628 65.808C120.524 65.9118 120.368 66.0156 120.317 66.0675C120.109 66.2231 119.901 66.4307 119.746 66.5863C119.59 66.742 119.486 66.8458 119.279 67.0533C119.227 67.1052 119.227 67.1571 119.175 67.1571C119.071 67.2609 118.967 67.4166 118.864 67.5203C118.708 67.676 118.604 67.8836 118.5 68.0392C118.397 68.1949 118.293 68.3506 118.189 68.5062C118.137 68.61 118.085 68.6619 118.033 68.7657C117.982 68.8694 117.93 68.9732 117.878 69.077C117.826 69.1289 117.826 69.1808 117.826 69.2327C117.826 69.2846 117.774 69.3364 117.774 69.3883C117.722 69.4921 117.67 69.544 117.67 69.5959C117.618 69.6997 117.566 69.8553 117.515 69.9591C117.463 70.011 117.463 70.1148 117.463 70.1667C117.411 70.3223 117.359 70.4261 117.307 70.5818C117.255 70.7893 117.151 70.9969 117.099 71.2044C116.944 71.7752 116.84 72.2941 116.736 72.7611C116.684 72.9686 116.632 73.2281 116.632 73.4356C116.581 73.6432 116.581 73.8507 116.581 74.0583C116.581 74.3177 116.529 74.5253 116.529 74.7328C116.529 74.8885 116.529 75.0442 116.529 75.2517C116.581 75.7187 116.632 76.1338 116.736 76.5489C116.788 76.7046 116.788 76.8084 116.84 76.9122C116.944 77.1197 116.996 77.3792 117.099 77.5348C117.151 77.5867 117.151 77.6386 117.203 77.6905C117.255 77.7424 117.307 77.8462 117.359 77.898C117.411 77.9499 117.463 78.0537 117.515 78.1056C117.515 78.1056 117.515 78.1575 117.566 78.1575L117.67 78.2613C117.722 78.3132 117.774 78.3651 117.774 78.4169L117.826 78.4688C117.93 78.5726 117.982 78.6245 118.085 78.7283C118.137 78.7802 118.241 78.832 118.293 78.9358C118.397 78.9877 118.449 79.0396 118.5 79.0915C118.604 79.1434 118.708 79.2472 118.76 79.299C118.864 79.3509 118.967 79.4028 119.019 79.4547C119.331 79.6104 119.642 79.7661 119.953 79.8698C120.057 79.9217 120.213 79.9736 120.265 79.9736C120.368 79.9736 120.42 80.0255 120.524 80.0255L120.628 80.0774C121.406 80.233 122.288 80.3368 123.326 80.3887C123.534 80.3887 123.689 80.3887 123.949 80.3887C124.001 80.3887 124.001 80.3887 124.053 80.3887H124.987C126.336 80.3887 127.944 80.2849 129.916 80.1293C131.992 79.9736 134.482 79.766 137.44 79.6623C140.501 79.5585 144.133 79.6623 148.336 80.0255C149.374 80.1293 150.308 80.233 151.242 80.3368C151.553 80.3887 151.865 80.3887 152.124 80.4406L152.539 80.4925C152.851 80.5444 153.162 80.5444 153.473 80.5963L155.808 80.9076C155.964 80.9076 156.12 80.9595 156.223 80.9595C156.742 81.0632 157.209 81.1151 157.676 81.2189C158.558 81.3746 159.441 81.5302 160.323 81.7378C160.53 81.7897 160.738 81.8416 160.945 81.8935C161.309 81.9973 161.724 82.0491 162.087 82.1529C162.45 82.2567 162.761 82.3086 163.073 82.4124C163.436 82.5161 163.799 82.6199 164.111 82.7237L164.37 82.8275C164.577 82.8793 164.837 82.9831 165.045 83.035C165.252 83.0869 165.46 83.1907 165.667 83.2426C166.186 83.4501 166.653 83.6058 167.068 83.7615H167.12C167.38 83.8652 167.587 83.969 167.846 84.0728C167.95 84.1247 168.106 84.1766 168.21 84.2285C168.573 84.3841 168.936 84.5917 169.299 84.7473C170.026 85.1106 170.648 85.37 171.271 85.6294L171.427 85.6813C171.582 85.7332 171.686 85.7851 171.842 85.837C172.205 85.9927 172.62 86.0965 173.035 86.2521C173.191 86.304 173.399 86.3559 173.606 86.4078H173.71C173.917 86.4597 174.125 86.5116 174.384 86.6153C174.384 86.6153 174.384 86.6153 174.436 86.6153C174.436 86.6153 174.436 86.6153 174.488 86.6153C174.696 86.6672 174.851 86.7191 175.059 86.771L175.422 86.8748C175.941 86.9786 176.408 87.0823 176.875 87.1342L177.083 87.1861C177.29 87.238 177.55 87.238 177.757 87.2899C177.809 87.2899 177.861 87.2899 177.861 87.2899H177.913C178.172 87.3418 178.432 87.3418 178.639 87.3937C179.003 87.4455 179.366 87.4974 179.729 87.4974C179.988 87.4974 180.196 87.5493 180.455 87.5493L191.767 93.1533C194.362 94.4505 195.814 96.7855 195.814 99.5356ZM247.392 73.2281C244.849 81.0633 239.92 87.8088 234.835 90.8183C234.731 90.8702 234.627 90.9221 234.523 90.974C233.122 91.7523 231.721 92.2712 230.372 92.4787C230.372 92.4787 230.372 92.4787 230.32 92.4787C228.037 92.6863 225.547 91.908 221.188 90.4032L219.735 89.8843C218.645 89.5211 217.504 89.106 216.207 88.6909C215.065 88.2758 213.975 87.9644 213.041 87.6012C204.584 84.6955 203.701 84.3841 192.286 85.6813C188.083 86.1483 184.295 86.2521 181.078 86.0446C181.026 86.0446 181.026 86.0446 180.974 86.0446H180.922C180.663 86.0446 180.352 85.9927 180.092 85.9927C179.729 85.9408 179.366 85.9408 179.054 85.8889L178.172 85.7851C177.965 85.7332 177.757 85.7332 177.498 85.6813L177.29 85.6294C176.771 85.5257 176.356 85.4738 175.941 85.37L175.059 85.1624C174.851 85.1106 174.592 85.0587 174.384 84.9549H174.333C174.177 84.903 173.969 84.8511 173.762 84.7992C173.347 84.6955 172.983 84.5398 172.62 84.436C172.465 84.3841 172.257 84.3322 172.101 84.2285C171.531 84.0209 170.908 83.7096 170.233 83.3982C169.87 83.1907 169.455 83.035 169.092 82.8275L168.936 82.7756C168.832 82.7237 168.78 82.6718 168.677 82.6718C168.417 82.568 168.158 82.4642 167.898 82.3605H167.846C167.587 82.2567 167.328 82.1529 167.068 82.0491C166.861 81.9972 166.653 81.8935 166.445 81.7897C165.979 81.634 165.46 81.4265 164.837 81.2708C164.474 81.167 164.162 81.0632 163.747 80.9595C163.747 80.9595 163.747 80.9595 163.695 80.9595C163.384 80.8557 163.021 80.7519 162.658 80.7C162.294 80.5963 161.879 80.4925 161.516 80.4406C161.309 80.3887 161.101 80.3368 160.893 80.2849C160.686 80.233 160.426 80.1812 160.167 80.1293C159.492 79.9736 158.87 79.8698 158.195 79.766C157.78 79.7142 157.365 79.6104 156.898 79.5585L156.69 79.5066C156.535 79.5066 156.379 79.4547 156.223 79.4547L155.082 79.299C154.874 79.2472 154.667 79.2472 154.459 79.1953L153.837 79.1434C153.525 79.0915 153.214 79.0396 152.851 79.0396L152.436 78.9877C152.124 78.9358 151.813 78.9358 151.502 78.8839C150.568 78.7802 149.582 78.6764 148.544 78.5726C140.138 77.8462 134.223 78.3132 129.864 78.6764C127.892 78.832 126.388 78.9877 125.09 78.9358H124.104C124.053 78.9358 124.053 78.9358 124.001 78.9358C123.845 78.9358 123.637 78.9358 123.482 78.9358C122.496 78.8839 121.718 78.7802 121.095 78.6245L120.991 78.5726C120.939 78.5726 120.887 78.5726 120.835 78.5207C120.784 78.5207 120.68 78.4688 120.576 78.4169C120.317 78.3132 120.057 78.2613 119.85 78.1056C119.798 78.1056 119.746 78.0537 119.694 78.0018C119.642 77.9499 119.59 77.9499 119.486 77.8462C119.434 77.7943 119.383 77.7943 119.331 77.7424L119.279 77.6905C119.227 77.6905 119.227 77.6386 119.175 77.5867C119.123 77.5348 119.071 77.4829 119.019 77.4829L118.812 77.2235C118.76 77.1716 118.76 77.1716 118.708 77.1197L118.656 77.0678C118.656 77.0159 118.604 77.016 118.604 76.9641C118.604 76.9122 118.552 76.8603 118.552 76.8603C118.5 76.7046 118.397 76.6008 118.345 76.4452C118.293 76.3414 118.293 76.2895 118.241 76.1857C118.137 75.8744 118.085 75.5631 118.085 75.2517C118.085 75.0961 118.085 74.9923 118.085 74.8366C118.085 74.6291 118.085 74.4734 118.085 74.2659C118.085 74.1102 118.137 73.9545 118.137 73.747C118.137 73.5913 118.189 73.3837 118.241 73.1762C118.293 72.9686 118.345 72.7611 118.397 72.5016C118.449 72.2422 118.5 71.9828 118.604 71.7233C118.656 71.5676 118.708 71.3601 118.76 71.2044C118.812 71.1007 118.812 70.9969 118.864 70.8931C118.864 70.8931 118.864 70.8412 118.916 70.8412V70.7893C118.916 70.7374 118.967 70.7374 118.967 70.6855C119.019 70.5818 119.071 70.478 119.123 70.3742C119.123 70.3223 119.175 70.2704 119.175 70.2704V70.2186C119.227 70.1667 119.227 70.0629 119.279 70.011C119.279 70.011 119.279 69.9591 119.331 69.9591C119.383 69.9072 119.383 69.8034 119.434 69.7516L119.486 69.6997C119.486 69.6478 119.538 69.5959 119.59 69.4921C119.642 69.3883 119.746 69.2327 119.85 69.1289C119.953 68.9732 120.057 68.8176 120.213 68.6619C120.317 68.5581 120.368 68.4543 120.472 68.3506L120.524 68.2987L120.628 68.1949C120.732 68.0911 120.835 67.9354 120.991 67.8317C121.147 67.676 121.302 67.5203 121.51 67.3647C121.614 67.2609 121.666 67.209 121.769 67.1571C121.769 67.1571 121.821 67.1052 121.873 67.1052C122.029 67.0015 122.133 66.8977 122.288 66.7939C122.444 66.6901 122.6 66.5863 122.755 66.4826C122.911 66.3788 123.067 66.275 123.222 66.2231C123.222 66.2231 123.274 66.2231 123.274 66.1712C123.741 65.9118 124.26 65.6524 124.831 65.3929C124.883 65.3929 124.883 65.3929 124.935 65.341C125.194 65.2373 125.402 65.1335 125.661 65.0297C126.388 64.7702 127.166 64.5108 127.944 64.2514C128.411 64.0957 128.93 63.9919 129.449 63.8881C129.708 63.8363 129.968 63.7844 130.227 63.7325C130.746 63.6287 131.265 63.5249 131.784 63.473C131.94 63.4212 132.147 63.4211 132.303 63.3693C134.275 63.1098 136.143 62.9541 137.699 62.8504C144.289 62.4871 151.035 60.9824 153.37 60.0484C155.705 59.1144 158.247 56.3124 158.351 54.9633C158.455 53.5104 158.195 51.1236 156.275 47.8546C154.667 45.0007 151.502 41.8874 146.676 38.3071C146.624 38.2552 146.572 38.2552 146.52 38.2033C142.629 35.3494 137.595 32.1323 130.746 28.1369C129.138 27.2029 127.425 26.2689 125.661 25.3349L125.609 25.2831C121.925 23.3113 118.085 21.3395 114.505 19.5753C107.915 16.2544 102.207 13.4006 99.8206 11.4288C97.7969 9.82027 96.8629 7.53717 97.2262 5.30596C97.4856 3.59364 98.5234 2.14076 99.7168 1.67376C101.792 0.895436 119.123 7.27773 133.963 13.7638C143.355 17.863 157.728 23.8302 157.884 23.8821C158.299 24.0377 158.714 23.8821 158.922 23.467C159.077 23.0519 158.922 22.6367 158.507 22.4292C158.403 22.3773 151.761 19.6272 144.549 16.5658C149.737 13.9195 153.11 14.2308 156.742 15.5799C156.898 15.6318 157.054 15.6837 157.209 15.7356C158.818 16.3582 161.464 17.3441 163.488 18.0706C163.592 18.1224 163.695 18.1743 163.799 18.1743C170.856 20.7688 171.064 20.7688 171.219 20.7688C171.634 20.7688 171.998 20.4055 171.998 19.9904C171.998 19.6272 171.738 19.3159 171.375 19.2121C171.064 19.1083 168.78 18.33 165.927 17.2403C169.87 15.3723 173.087 14.8535 175.267 15.7356C178.536 17.0328 180.87 16.929 181.96 16.7214C185.073 16.2026 188.031 16.0988 192.13 20.7169C195.607 24.6085 214.183 38.2552 219.579 42.0431C222.278 43.9111 227.259 46.4536 232.552 49.0999C238.052 51.9019 243.759 54.7558 246.25 56.6756C247.807 57.921 248.793 60.2559 249 63.3174C249.052 66.2231 248.533 69.6478 247.392 73.2281Z" fill="#1A1C2C"/>
<path d="M233 97L223 89.5L218 53.5L242 54L253 60.5L251 79L233 97Z" fill="white"/>
<path d="M32.625 98.9139L29.8749 97.4092C29.1485 96.994 28.5258 96.4233 28.1626 95.6968L26.6578 92.9467C26.1908 92.0646 24.9455 92.0646 24.4266 92.9467L22.9218 95.6968C22.5067 96.4233 21.936 97.0459 21.2095 97.4092L18.4594 98.9139C17.5773 99.3809 17.5773 100.626 18.4594 101.145L21.2095 102.65C21.936 103.065 22.5586 103.636 22.9218 104.362L24.4266 107.112C24.8936 107.994 26.1389 107.994 26.6578 107.112L28.1626 104.362C28.5777 103.636 29.1485 103.013 29.8749 102.65L32.625 101.145C33.5071 100.626 33.5071 99.3809 32.625 98.9139Z" fill="#F3B753"/>
<path d="M14.1008 26.8922L12.0772 25.8025C11.5583 25.4912 11.0913 25.0761 10.78 24.5053L9.6903 22.4816C9.32708 21.859 8.39309 21.859 8.02987 22.4816L6.94021 24.5053C6.62887 25.0242 6.21377 25.4912 5.64299 25.8025L3.61934 26.8922C2.99668 27.2554 2.99668 28.1894 3.61934 28.5526L5.64299 29.6423C6.16188 29.9536 6.62887 30.3687 6.94021 30.9395L8.02987 32.9631C8.39309 33.5858 9.32708 33.5858 9.6903 32.9631L10.78 30.9395C11.0913 30.4206 11.5064 29.9536 12.0772 29.6423L14.1008 28.5526C14.7754 28.1894 14.7754 27.2554 14.1008 26.8922Z" fill="#F3B753"/>
<path d="M68.428 18.0188L67.1827 17.3443C66.8713 17.1886 66.56 16.8773 66.4043 16.5659L65.7298 15.3206C65.5222 14.9055 64.9515 14.9055 64.7439 15.3206L64.0694 16.5659C63.9137 16.8773 63.6024 17.1886 63.291 17.3443L62.0457 18.0188C61.6306 18.2264 61.6306 18.7971 62.0457 19.0047L63.291 19.6792C63.6024 19.8349 63.9137 20.1462 64.0694 20.4576L64.7439 21.7029C64.9515 22.118 65.5222 22.118 65.7298 21.7029L66.4043 20.4576C66.56 20.1462 66.8713 19.8349 67.1827 19.6792L68.428 19.0047C68.8431 18.7971 68.8431 18.2264 68.428 18.0188Z" fill="#F3B753"/>
<path d="M4.50133 38.8266L3.67111 38.3596C3.46356 38.2558 3.25601 38.0483 3.15223 37.8407L2.68523 37.0105C2.52957 36.7511 2.16635 36.7511 2.01068 37.0105L1.54369 37.8407C1.43991 38.0483 1.23236 38.2558 1.0248 38.3596L0.194582 38.8266C-0.0648607 38.9823 -0.0648607 39.3455 0.194582 39.5011L1.0248 39.9681C1.23236 40.0719 1.43991 40.2795 1.54369 40.487L2.01068 41.3172C2.16635 41.5767 2.52957 41.5767 2.68523 41.3172L3.15223 40.487C3.25601 40.2795 3.46356 40.0719 3.67111 39.9681L4.50133 39.5011C4.76078 39.3455 4.76078 38.9823 4.50133 38.8266Z" fill="#F3B753"/>
<path d="M90.7917 13.1936L86.3293 15.321C85.8104 15.5804 85.8623 16.3588 86.4331 16.5144L87.6265 16.8258C82.9047 22.0665 79.8951 30.9394 79.7914 40.4351C79.6876 51.0722 83.1122 60.0489 89.1832 64.9783C89.287 65.0821 89.3907 65.0821 89.4945 65.0821C89.6502 65.0821 89.8058 65.0302 89.9096 64.8746C90.0653 64.667 90.0653 64.3038 89.8577 64.1481C83.9943 59.3744 80.7253 50.709 80.8291 40.3832C80.9329 30.9913 83.8906 22.326 88.5086 17.2928L89.1832 18.7456C89.4426 19.2645 90.221 19.2126 90.3766 18.6419L91.622 13.8681C91.8295 13.4011 91.2587 12.986 90.7917 13.1936Z" fill="#F3B753"/>
</svg>
