<svg width="16" height="15" viewBox="0 0 16 15" fill="none" xmlns="http://www.w3.org/2000/svg">
<path d="M10.2632 6.31579C10.2632 5.88158 10.6184 5.52632 11.0526 5.52632C11.4868 5.52632 11.8421 5.88158 11.8421 6.31579C11.8421 6.75 11.4868 7.10526 11.0526 7.10526C10.6184 7.10526 10.2632 6.75 10.2632 6.31579ZM4.73684 5.52632H8.68421V3.94737H4.73684V5.52632ZM15.7895 4.3421V9.84474L13.5632 10.5868L12.2368 15H7.89474V13.4211H6.31579V15H1.97368C1.97368 15 0 8.32105 0 5.92105C0 3.52105 1.94211 1.57895 4.34211 1.57895H8.28948C9.0079 0.623684 10.1526 0 11.4474 0C11.6425 4.15185e-05 11.8345 0.0483484 12.0064 0.140616C12.1783 0.232883 12.3247 0.366244 12.4326 0.528814C12.5404 0.691384 12.6064 0.878113 12.6246 1.07236C12.6428 1.26661 12.6126 1.46234 12.5368 1.64211C12.4263 1.91053 12.3316 2.21842 12.2842 2.55L14.0763 4.3421H15.7895ZM14.2105 5.92105H13.4211L10.6579 3.15789C10.6579 2.64474 10.729 2.13947 10.8632 1.65C10.0974 1.84737 9.47369 2.41579 9.21316 3.15789H4.34211C2.81842 3.15789 1.57895 4.39737 1.57895 5.92105C1.57895 7.40526 2.54211 11.1711 3.1579 13.4211H4.73684V11.8421H9.47369V13.4211H11.0526L12.2842 9.35526L14.2105 8.70789V5.92105Z" fill="#16171B"/>
</svg>
