<svg width="16" height="17" viewBox="0 0 16 17" fill="none" xmlns="http://www.w3.org/2000/svg">
<path d="M15.2105 16.1H15.3105V16V15.2105C15.3105 13.7183 14.7178 12.2873 13.6626 11.2321C12.6075 10.177 11.1764 9.58421 9.68421 9.58421H6.52632C5.03412 9.58421 3.60305 10.177 2.54791 11.2321C1.49277 12.2873 0.9 13.7183 0.9 15.2105V16V16.1H1H2.57895H2.67895V16V15.2105C2.67895 14.1901 3.08429 13.2115 3.80582 12.49C4.52734 11.7685 5.50593 11.3632 6.52632 11.3632H9.68421C10.7046 11.3632 11.6832 11.7685 12.4047 12.49C13.1262 13.2115 13.5316 14.1901 13.5316 15.2105V16V16.1H13.6316H15.2105ZM8.10526 0.9C7.30477 0.9 6.52225 1.13737 5.85667 1.5821C5.19108 2.02684 4.67232 2.65895 4.36598 3.39851C4.05965 4.13807 3.9795 4.95186 4.13566 5.73697C4.29183 6.52208 4.67731 7.24326 5.24334 7.80929C5.80938 8.37532 6.53055 8.7608 7.31566 8.91697C8.10077 9.07314 8.91456 8.99299 9.65412 8.68665C10.3937 8.38031 11.0258 7.86155 11.4705 7.19597C11.9153 6.53038 12.1526 5.74786 12.1526 4.94737C12.1526 3.87394 11.7262 2.84448 10.9672 2.08545C10.2082 1.32642 9.17869 0.9 8.10526 0.9ZM8.10526 7.21579C7.65661 7.21579 7.21804 7.08275 6.845 6.83349C6.47196 6.58423 6.18121 6.22996 6.00952 5.81546C5.83782 5.40096 5.7929 4.94485 5.88043 4.50482C5.96796 4.06479 6.184 3.6606 6.50125 3.34335C6.81849 3.02611 7.22269 2.81006 7.66272 2.72253C8.10275 2.63501 8.55885 2.67993 8.97335 2.85162C9.38785 3.02331 9.74213 3.31406 9.99139 3.6871C10.2406 4.06014 10.3737 4.49872 10.3737 4.94737C10.3737 5.54899 10.1347 6.12597 9.70928 6.55138C9.28387 6.9768 8.70689 7.21579 8.10526 7.21579Z" fill="#16171B" stroke="#16171B" stroke-width="0.2"/>
</svg>
