<svg width="17" height="17" viewBox="0 0 17 17" fill="none" xmlns="http://www.w3.org/2000/svg">
<path d="M4.75 1C4.25272 1 3.77581 1.19754 3.42417 1.54917C3.07254 1.90081 2.875 2.37772 2.875 2.875V3.93719L1.99281 4.40781C1.69289 4.56773 1.44208 4.80617 1.2672 5.09763C1.09233 5.38909 0.999966 5.7226 1 6.0625V14.125C1 14.6223 1.19754 15.0992 1.54917 15.4508C1.90081 15.8025 2.37772 16 2.875 16H14.125C14.6223 16 15.0992 15.8025 15.4508 15.4508C15.8025 15.0992 16 14.6223 16 14.125V6.0625C16 5.7226 15.9077 5.38909 15.7328 5.09763C15.5579 4.80617 15.3071 4.56773 15.0072 4.40781L14.125 3.93719V2.875C14.125 2.37772 13.9275 1.90081 13.5758 1.54917C13.2242 1.19754 12.7473 1 12.25 1H4.75ZM14.125 5.00031L14.5656 5.23469C14.7157 5.31462 14.8413 5.43389 14.9288 5.57971C15.0163 5.72554 15.0626 5.89242 15.0625 6.0625V6.82844L14.125 7.39094V5.00031ZM13.1875 7.95344L9.67188 10.0628L8.5 9.35969L7.32812 10.0628L3.8125 7.95344V2.875C3.8125 2.62636 3.91127 2.3879 4.08709 2.21209C4.2629 2.03627 4.50136 1.9375 4.75 1.9375H12.25C12.4986 1.9375 12.7371 2.03627 12.9129 2.21209C13.0887 2.3879 13.1875 2.62636 13.1875 2.875V7.95344ZM2.875 7.39094L1.9375 6.82844V6.0625C1.93761 5.89258 1.9839 5.72589 2.07142 5.58025C2.15894 5.43461 2.2844 5.31549 2.43437 5.23563L2.875 5.00031V7.39094ZM15.0625 7.92156V13.2972L10.5831 10.6094L15.0625 7.92156ZM15.0297 14.3716C14.9756 14.57 14.8577 14.7452 14.6942 14.8701C14.5307 14.9949 14.3307 15.0625 14.125 15.0625H2.875C2.66916 15.0625 2.46905 14.9947 2.30555 14.8697C2.14205 14.7446 2.02424 14.5693 1.97031 14.3706L8.5 10.4528L15.0297 14.3716ZM1.9375 13.2963V7.92156L6.41687 10.6094L1.9375 13.2963Z" fill="#16171B" stroke="#16171B" stroke-width="0.6"/>
</svg>
