<svg width="14" height="17" viewBox="0 0 14 17" fill="none" xmlns="http://www.w3.org/2000/svg">
<path d="M13.8125 7.72727C13.8125 12.0159 10.8658 16.0264 6.90625 17C2.94667 16.0264 0 12.0159 0 7.72727V3.09091L6.90625 0L13.8125 3.09091V7.72727ZM6.90625 15.4545C9.78385 14.6818 12.2778 11.2355 12.2778 7.89727V4.09545L6.90625 1.68455L1.53472 4.09545V7.89727C1.53472 11.2355 4.02865 14.6818 6.90625 15.4545ZM6.90625 3.86364C7.5168 3.86364 8.10234 4.10787 8.53407 4.54262C8.96579 4.97736 9.20833 5.567 9.20833 6.18182C9.20833 7.19409 8.57142 8.05182 7.67361 8.36864V10.0455H9.20833V11.5909H7.67361V13.1364H6.13889V8.36864C5.68924 8.20975 5.29987 7.91383 5.02484 7.52195C4.74982 7.13007 4.60279 6.66168 4.60417 6.18182C4.60417 5.567 4.84671 4.97736 5.27843 4.54262C5.71016 4.10787 6.2957 3.86364 6.90625 3.86364ZM6.90625 5.40909C6.70273 5.40909 6.50755 5.4905 6.36364 5.63542C6.21974 5.78033 6.13889 5.97688 6.13889 6.18182C6.13889 6.38676 6.21974 6.5833 6.36364 6.72822C6.50755 6.87313 6.70273 6.95455 6.90625 6.95455C7.10977 6.95455 7.30495 6.87313 7.44886 6.72822C7.59276 6.5833 7.67361 6.38676 7.67361 6.18182C7.67361 5.97688 7.59276 5.78033 7.44886 5.63542C7.30495 5.4905 7.10977 5.40909 6.90625 5.40909Z" fill="#1D1F22"/>
</svg>
