<svg width="13" height="15" viewBox="0 0 13 15" fill="none" xmlns="http://www.w3.org/2000/svg">
<path d="M4 2.5V10C4 10.3315 4.1317 10.6495 4.36612 10.8839C4.60054 11.1183 4.91848 11.25 5.25 11.25H10.25C10.5815 11.25 10.8995 11.1183 11.1339 10.8839C11.3683 10.6495 11.5 10.3315 11.5 10V4.52625C11.5 4.35972 11.4667 4.19488 11.4021 4.0414C11.3375 3.88792 11.2428 3.7489 11.1238 3.6325L9.05188 1.60625C8.81835 1.37791 8.50473 1.25004 8.17813 1.25H5.25C4.91848 1.25 4.60054 1.3817 4.36612 1.61612C4.1317 1.85054 4 2.16848 4 2.5V2.5Z" stroke="#A2A2A6" stroke-width="1.5" stroke-linecap="round" stroke-linejoin="round"/>
<path d="M9 11.25V12.5C9 12.8315 8.8683 13.1495 8.63388 13.3839C8.39946 13.6183 8.08152 13.75 7.75 13.75H2.75C2.41848 13.75 2.10054 13.6183 1.86612 13.3839C1.6317 13.1495 1.5 12.8315 1.5 12.5V5.625C1.5 5.29348 1.6317 4.97554 1.86612 4.74112C2.10054 4.5067 2.41848 4.375 2.75 4.375H4" stroke="#A2A2A6" stroke-width="1.5" stroke-linecap="round" stroke-linejoin="round"/>
</svg>
