<svg width="13" height="13" viewBox="0 0 13 13" fill="none" xmlns="http://www.w3.org/2000/svg">
<path d="M9.29625 2.37989L10.62 3.70302M10.1475 1.21427L6.56813 4.79364C6.38318 4.97833 6.25705 5.21363 6.20563 5.46989L5.875 7.12489L7.53 6.79364C7.78625 6.74239 8.02125 6.61677 8.20625 6.43177L11.7856 2.85239C11.8932 2.74483 11.9785 2.61714 12.0367 2.4766C12.0949 2.33607 12.1249 2.18544 12.1249 2.03333C12.1249 1.88122 12.0949 1.73059 12.0367 1.59006C11.9785 1.44952 11.8932 1.32183 11.7856 1.21427C11.6781 1.10671 11.5504 1.02138 11.4098 0.963173C11.2693 0.904961 11.1187 0.875 10.9666 0.875C10.8144 0.875 10.6638 0.904961 10.5233 0.963173C10.3828 1.02138 10.2551 1.10671 10.1475 1.21427V1.21427Z" stroke="#A2A2A6" stroke-width="1.5" stroke-linecap="round" stroke-linejoin="round"/>
<path d="M10.875 8.375V10.25C10.875 10.5815 10.7433 10.8995 10.5089 11.1339C10.2745 11.3683 9.95652 11.5 9.625 11.5H2.75C2.41848 11.5 2.10054 11.3683 1.86612 11.1339C1.6317 10.8995 1.5 10.5815 1.5 10.25V3.375C1.5 3.04348 1.6317 2.72554 1.86612 2.49112C2.10054 2.2567 2.41848 2.125 2.75 2.125H4.625" stroke="#A2A2A6" stroke-width="1.5" stroke-linecap="round" stroke-linejoin="round"/>
</svg>
