<svg width="13" height="13" viewBox="0 0 13 13" fill="none" xmlns="http://www.w3.org/2000/svg">
<path d="M5.25 2.75H7.75C7.75 2.41848 7.6183 2.10054 7.38388 1.86612C7.14946 1.6317 6.83152 1.5 6.5 1.5C6.16848 1.5 5.85054 1.6317 5.61612 1.86612C5.3817 2.10054 5.25 2.41848 5.25 2.75ZM4 2.75C4 2.08696 4.26339 1.45107 4.73223 0.982233C5.20107 0.513392 5.83696 0.25 6.5 0.25C7.16304 0.25 7.79893 0.513392 8.26777 0.982233C8.73661 1.45107 9 2.08696 9 2.75H12.125C12.2908 2.75 12.4497 2.81585 12.5669 2.93306C12.6842 3.05027 12.75 3.20924 12.75 3.375C12.75 3.54076 12.6842 3.69973 12.5669 3.81694C12.4497 3.93415 12.2908 4 12.125 4H11.5737L11.02 10.4625C10.9668 11.0865 10.6812 11.6679 10.2199 12.0915C9.75858 12.5151 9.15506 12.7501 8.52875 12.75H4.47125C3.84494 12.7501 3.24142 12.5151 2.78009 12.0915C2.31876 11.6679 2.03324 11.0865 1.98 10.4625L1.42625 4H0.875C0.70924 4 0.550268 3.93415 0.433058 3.81694C0.315848 3.69973 0.25 3.54076 0.25 3.375C0.25 3.20924 0.315848 3.05027 0.433058 2.93306C0.550268 2.81585 0.70924 2.75 0.875 2.75H4ZM8.375 6.5C8.375 6.33424 8.30915 6.17527 8.19194 6.05806C8.07473 5.94085 7.91576 5.875 7.75 5.875C7.58424 5.875 7.42527 5.94085 7.30806 6.05806C7.19085 6.17527 7.125 6.33424 7.125 6.5V9C7.125 9.16576 7.19085 9.32473 7.30806 9.44194C7.42527 9.55915 7.58424 9.625 7.75 9.625C7.91576 9.625 8.07473 9.55915 8.19194 9.44194C8.30915 9.32473 8.375 9.16576 8.375 9V6.5ZM5.25 5.875C5.41576 5.875 5.57473 5.94085 5.69194 6.05806C5.80915 6.17527 5.875 6.33424 5.875 6.5V9C5.875 9.16576 5.80915 9.32473 5.69194 9.44194C5.57473 9.55915 5.41576 9.625 5.25 9.625C5.08424 9.625 4.92527 9.55915 4.80806 9.44194C4.69085 9.32473 4.625 9.16576 4.625 9V6.5C4.625 6.33424 4.69085 6.17527 4.80806 6.05806C4.92527 5.94085 5.08424 5.875 5.25 5.875ZM3.225 10.3562C3.25163 10.6684 3.39448 10.9591 3.62528 11.1709C3.85607 11.3828 4.15799 11.5002 4.47125 11.5H8.52875C8.8418 11.4999 9.1434 11.3823 9.37393 11.1705C9.60447 10.9587 9.74714 10.6682 9.77375 10.3562L10.3188 4H2.68125L3.22625 10.3562H3.225Z" fill="#16171B" stroke="#16171B" stroke-width="0.3"/>
</svg>
