<svg width="194" height="28" viewBox="0 0 194 28" fill="none" xmlns="http://www.w3.org/2000/svg">
<path d="M21.3834 24.9338C20.711 25.2566 20.0116 25.5794 19.2854 25.9022C18.5861 26.198 17.8329 26.467 17.026 26.7091C16.2191 26.9243 15.3315 27.0991 14.3632 27.2336C13.4218 27.3681 12.3862 27.4353 11.2565 27.4353C7.6523 27.4353 4.86842 26.6284 2.90491 25.0145C0.968305 23.4007 0 20.711 0 16.9453C0 14.7666 0.336217 12.7225 1.00865 10.8127C1.68108 8.87613 2.67629 7.19504 3.99426 5.76948C5.31223 4.31703 6.93952 3.17389 8.87613 2.34007C10.8127 1.50625 13.0318 1.08934 15.5332 1.08934C16.7167 1.08934 17.7926 1.17004 18.7609 1.33142C19.7561 1.4928 20.6437 1.70798 21.4237 1.97696C22.2307 2.21903 22.9434 2.48801 23.5621 2.78388C24.2076 3.07975 24.7859 3.36217 25.297 3.63114L23.8445 11.1355H16.5822C16.6091 10.8665 16.636 10.5169 16.6629 10.0865C16.7167 9.65615 16.7571 9.22579 16.7839 8.79543C16.8108 8.33818 16.8377 7.89437 16.8646 7.46402C16.8915 7.03366 16.905 6.67055 16.905 6.37468C16.905 6.1595 16.8915 5.91742 16.8646 5.64845C16.8377 5.35257 16.7705 5.07015 16.6629 4.80118C16.5553 4.53221 16.3805 4.31703 16.1384 4.15564C15.9232 3.96736 15.6274 3.87322 15.2508 3.87322C14.5515 3.87322 13.9059 4.16909 13.3142 4.76083C12.7493 5.32568 12.2383 6.09225 11.781 7.06056C11.3238 8.00196 10.9203 9.07786 10.5707 10.2882C10.221 11.4986 9.92512 12.7359 9.68305 14.0001C9.46787 15.2374 9.29304 16.4612 9.15855 17.6716C9.05096 18.8819 8.99716 19.9444 8.99716 20.8589C8.99716 21.1279 9.01061 21.4641 9.03751 21.8675C9.06441 22.271 9.1451 22.661 9.27959 23.0376C9.41407 23.4141 9.61581 23.7369 9.88478 24.0059C10.1806 24.2749 10.5707 24.4093 11.0548 24.4093C11.8886 24.4093 12.6956 23.8983 13.4756 22.8762C14.2556 21.8272 14.9415 19.9713 15.5332 17.3084H22.9972L21.3834 24.9338Z" fill="#1D1F22"/>
<path d="M44.6715 9.76374H51.2479L51.8531 12.7897H52.1355C52.7541 11.8214 53.5476 11.001 54.5159 10.3286C55.4842 9.65615 56.7619 9.31993 58.3488 9.31993C58.4564 9.31993 58.6178 9.33338 58.8329 9.36028C59.075 9.36028 59.3306 9.40063 59.5995 9.48132C59.8954 9.53511 60.1913 9.62925 60.4871 9.76374C60.8099 9.87133 61.1192 10.0327 61.4151 10.2479L59.6399 18.5592H55.2422C55.1884 16.8915 55.0404 15.735 54.7983 15.0894C54.5563 14.417 54.1663 14.0808 53.6283 14.0808C53.3593 14.0808 53.0635 14.148 52.7407 14.2825C52.4448 14.3901 52.1355 14.6456 51.8127 15.0491L49.2306 27.1125H41L44.6715 9.76374Z" fill="#1D1F22"/>
<path d="M85.6388 7.34298C85.6388 8.123 85.5178 8.82233 85.2757 9.44097C85.0605 10.0596 84.7512 10.611 84.3477 11.0952C83.9443 11.5793 83.4735 12.0097 82.9356 12.3862C82.3977 12.7628 81.8059 13.1125 81.1604 13.4352C81.4562 13.5428 81.8059 13.7177 82.2094 13.9597C82.6128 14.1749 83.0028 14.4842 83.3794 14.8877C83.756 15.2911 84.0653 15.8156 84.3074 16.4612C84.5763 17.0798 84.7108 17.8464 84.7108 18.7609C84.7108 19.9713 84.4553 21.0875 83.9443 22.1096C83.4332 23.1317 82.6666 24.0193 81.6445 24.7725C80.6493 25.4987 79.412 26.077 77.9327 26.5073C76.4802 26.9108 74.7992 27.1125 72.8894 27.1125H60.9067L63.63 14.3027L66.3534 1.4928H76.9644C78.0134 1.4928 79.0489 1.5735 80.071 1.73488C81.12 1.86937 82.048 2.15179 82.8549 2.58215C83.6887 3.01251 84.3612 3.6177 84.8722 4.39772C85.3833 5.15084 85.6388 6.1326 85.6388 7.34298ZM74.6647 12.2248C75.2564 12.2248 75.754 12.05 76.1575 11.7004C76.5878 11.3507 76.9375 10.9203 77.2065 10.4093C77.4754 9.87133 77.6772 9.30649 77.8117 8.71474C77.9461 8.0961 78.0134 7.54471 78.0134 7.06056C78.0134 6.28053 77.8251 5.62155 77.4485 5.0836C77.0989 4.51876 76.534 4.23633 75.754 4.23633H74.5436L72.8088 12.2248H74.6647ZM71.7598 24.5707C72.5667 24.5707 73.2391 24.3421 73.7771 23.8849C74.315 23.4276 74.7588 22.8628 75.1085 22.1903C75.4581 21.5179 75.7002 20.8186 75.8347 20.0923C75.9961 19.3392 76.0768 18.6802 76.0768 18.1154C76.0768 17.174 75.875 16.4343 75.4716 15.8963C75.095 15.3315 74.4764 15.0491 73.6157 15.0491H72.1229L70.1459 24.5707H71.7598Z" fill="#F3B753"/>
<path d="M89.2728 9.76374H95.8492L96.4544 12.7897H96.7368C97.3554 11.8214 98.1489 11.001 99.1172 10.3286C100.086 9.65615 101.363 9.31993 102.95 9.31993C103.058 9.31993 103.219 9.33338 103.434 9.36028C103.676 9.36028 103.932 9.40063 104.201 9.48132C104.497 9.53511 104.793 9.62925 105.088 9.76374C105.411 9.87133 105.721 10.0327 106.016 10.2479L104.241 18.5592H99.8434C99.7896 16.8915 99.6417 15.735 99.3996 15.0894C99.1575 14.417 98.7675 14.0808 98.2296 14.0808C97.9606 14.0808 97.6647 14.148 97.342 14.2825C97.0461 14.3901 96.7368 14.6456 96.414 15.0491L93.8319 27.1125H85.6013L89.2728 9.76374Z" fill="#F3B753"/>
<path d="M118.217 9.31993C121.418 9.31993 123.744 9.88478 125.197 11.0145C126.73 12.198 127.497 14.1615 127.497 16.905C127.497 18.5995 127.214 20.1327 126.649 21.5044C126.084 22.8493 125.291 23.9655 124.269 24.8532C122.225 26.5746 119.266 27.4353 115.393 27.4353C112.084 27.4353 109.717 26.8032 108.292 25.539C106.759 24.2211 105.992 22.2441 105.992 19.6082C105.992 17.8598 106.342 16.2729 107.041 14.8473C107.767 13.4218 108.803 12.2383 110.148 11.2969C112.111 9.97892 114.801 9.31993 118.217 9.31993ZM115.473 24.6918C116.146 24.6918 116.724 24.3152 117.208 23.5621C117.719 22.809 118.123 21.8944 118.419 20.8186C118.715 19.7158 118.93 18.5861 119.064 17.4295C119.226 16.246 119.306 15.2239 119.306 14.3632C119.306 13.6101 119.226 13.0452 119.064 12.6687C118.93 12.2652 118.62 12.0635 118.136 12.0635C117.41 12.0635 116.778 12.4535 116.24 13.2335C115.729 14.0135 115.312 14.9415 114.989 16.0174C114.666 17.0933 114.424 18.1961 114.263 19.3258C114.129 20.4554 114.061 21.3699 114.061 22.0693C114.061 23.8176 114.532 24.6918 115.473 24.6918Z" fill="#F3B753"/>
<path d="M138.68 17.1067L148.081 9.76374H153.407L145.378 16.3401L148.383 21.7263L151.389 27.1125H142.352L138.236 19.003L136.542 27.1125H128.311L134.04 0H142.311L138.68 17.1067Z" fill="#F3B753"/>
<path d="M160.559 19.003C160.452 19.5947 160.371 20.1596 160.317 20.6975C160.29 21.2355 160.277 21.7196 160.277 22.15C160.277 22.392 160.29 22.661 160.317 22.9569C160.344 23.2528 160.398 23.5352 160.479 23.8042C160.586 24.0462 160.721 24.2614 160.882 24.4497C161.071 24.6111 161.326 24.6918 161.649 24.6918C161.891 24.6918 162.16 24.6111 162.456 24.4497C162.779 24.2883 163.088 24.0597 163.384 23.7638C163.706 23.4679 164.002 23.1048 164.271 22.6745C164.567 22.2441 164.796 21.76 164.957 21.222H171.574L170.525 25.539C169.987 25.8887 169.368 26.1846 168.669 26.4267C167.97 26.6687 167.23 26.8705 166.45 27.0318C165.67 27.1663 164.876 27.2605 164.07 27.3143C163.263 27.395 162.496 27.4353 161.77 27.4353C160.425 27.4353 159.174 27.3143 158.018 27.0722C156.861 26.8301 155.852 26.4132 154.992 25.8215C154.131 25.2297 153.445 24.4497 152.934 23.4814C152.45 22.4862 152.208 21.2624 152.208 19.8099C152.208 18.4919 152.41 17.2009 152.813 15.9367C153.243 14.6725 153.943 13.5563 154.911 12.588C155.906 11.5928 157.224 10.7993 158.865 10.2075C160.533 9.6158 162.604 9.31993 165.078 9.31993C167.768 9.31993 169.785 9.73684 171.13 10.5707C172.502 11.4045 173.188 12.709 173.188 14.4842C173.188 15.2105 173.08 16.0039 172.865 16.8646C172.65 17.6985 172.327 18.4112 171.897 19.003H160.559ZM165.925 14.2018C165.925 13.368 165.791 12.8031 165.522 12.5073C165.253 12.2114 164.93 12.0635 164.554 12.0635C164.123 12.0635 163.72 12.2114 163.343 12.5073C162.994 12.7762 162.671 13.1528 162.375 13.637C162.079 14.0942 161.81 14.6322 161.568 15.2508C161.326 15.8425 161.124 16.4746 160.963 17.1471H165.562C165.616 16.8243 165.67 16.4881 165.724 16.1384C165.778 15.8425 165.818 15.5198 165.845 15.1701C165.899 14.8204 165.925 14.4977 165.925 14.2018Z" fill="#F3B753"/>
<path d="M177.096 9.76374H183.673L184.278 12.7897H184.56C185.179 11.8214 185.972 11.001 186.941 10.3286C187.909 9.65615 189.187 9.31993 190.774 9.31993C190.881 9.31993 191.043 9.33338 191.258 9.36028C191.5 9.36028 191.755 9.40063 192.024 9.48132C192.32 9.53511 192.616 9.62925 192.912 9.76374C193.235 9.87133 193.544 10.0327 193.84 10.2479L192.065 18.5592H187.667C187.613 16.8915 187.465 15.735 187.223 15.0894C186.981 14.417 186.591 14.0808 186.053 14.0808C185.784 14.0808 185.488 14.148 185.166 14.2825C184.87 14.3901 184.56 14.6456 184.238 15.0491L181.655 27.1125H173.425L177.096 9.76374Z" fill="#F3B753"/>
<path fill-rule="evenodd" clip-rule="evenodd" d="M41.4411 10H32.2571C31.5331 9.99937 30.8273 10.2236 30.2399 10.6409C29.6526 11.0582 29.2136 11.6473 28.9854 12.3245L27.4122 16.9757C26.9939 17.1483 26.6368 17.4389 26.3855 17.8109C26.1343 18.1829 26.0002 18.6198 26 19.0667V22.4667C26 23.3031 26.4646 24.0261 27.15 24.4194V25.8667C27.15 26.1672 27.2712 26.4555 27.4868 26.6681C27.7025 26.8806 27.995 27 28.3 27H29.45C29.755 27 30.0475 26.8806 30.2632 26.6681C30.4788 26.4555 30.6 26.1672 30.6 25.8667V24.7333H38.1178L39.9073 16.8H29.8951L31.1658 13.0419C31.3233 12.5783 31.7626 12.2667 32.2571 12.2667H40.9298L41.4411 10ZM29.3647 22.337C29.574 22.4225 29.7984 22.4666 30.025 22.4667C30.4827 22.4668 30.9216 22.2878 31.2453 21.969C31.569 21.6502 31.751 21.2177 31.7511 20.7667C31.7513 20.3156 31.5696 19.883 31.2461 19.564C30.9226 19.245 30.4838 19.0657 30.0261 19.0655C29.5685 19.0654 29.1295 19.2444 28.8058 19.5632C28.4821 19.882 28.3002 20.3145 28.3 20.7655C28.2998 21.2166 28.4815 21.6492 28.805 21.9682C28.9652 22.1261 29.1554 22.2515 29.3647 22.337Z" fill="#16171B"/>
</svg>
