<svg width="101" height="37" viewBox="0 0 101 37" fill="none" xmlns="http://www.w3.org/2000/svg">
<path d="M31.6331 18.1166C31.1222 18.3618 30.5909 18.607 30.0391 18.8523C29.5078 19.0771 28.9356 19.2814 28.3225 19.4654C27.7094 19.6288 27.035 19.7617 26.2993 19.8639C25.5841 19.966 24.7973 20.0171 23.939 20.0171C21.2005 20.0171 19.0854 19.404 17.5936 18.1779C16.1222 16.9517 15.3865 14.9081 15.3865 12.0471C15.3865 10.3917 15.6419 8.8386 16.1528 7.38764C16.6637 5.91624 17.4198 4.63899 18.4212 3.55588C19.4226 2.45233 20.659 1.5838 22.1304 0.950277C23.6018 0.316759 25.2877 0 27.1883 0C28.0875 0 28.9049 0.0613076 29.6406 0.183924C30.3967 0.306541 31.0711 0.47003 31.6638 0.67439C32.2769 0.858315 32.8184 1.06268 33.2884 1.28747C33.7789 1.51227 34.2183 1.72685 34.6066 1.93121L33.503 7.63287H27.9853C28.0057 7.42851 28.0262 7.16284 28.0466 6.83587C28.0875 6.50889 28.1181 6.18191 28.1386 5.85493C28.159 5.50752 28.1794 5.17033 28.1999 4.84335C28.2203 4.51637 28.2305 4.24049 28.2305 4.01569C28.2305 3.8522 28.2203 3.66827 28.1999 3.46391C28.1794 3.23912 28.1283 3.02454 28.0466 2.82018C27.9649 2.61582 27.832 2.45233 27.6481 2.32971C27.4846 2.18666 27.2598 2.11513 26.9737 2.11513C26.4424 2.11513 25.9519 2.33993 25.5023 2.78952C25.0732 3.21868 24.6849 3.80111 24.3375 4.53681C23.99 5.25207 23.6835 6.06951 23.4178 6.98914C23.1522 7.90876 22.9274 8.84882 22.7434 9.80931C22.58 10.7494 22.4471 11.6792 22.3449 12.5988C22.2632 13.5185 22.2223 14.3257 22.2223 15.0205C22.2223 15.2249 22.2325 15.4803 22.253 15.7869C22.2734 16.0934 22.3347 16.3897 22.4369 16.6758C22.5391 16.9619 22.6924 17.2072 22.8967 17.4115C23.1215 17.6159 23.4178 17.7181 23.7857 17.7181C24.4192 17.7181 25.0323 17.3298 25.6249 16.5532C26.2176 15.7562 26.7387 14.3461 27.1883 12.3229H32.8593L31.6331 18.1166Z" fill="#16171B"/>
<path d="M49.327 6.59063H54.3236L54.7834 8.88969H54.998C55.468 8.15399 56.0709 7.53069 56.8066 7.01979C57.5423 6.50889 58.513 6.25344 59.7187 6.25344C59.8005 6.25344 59.9231 6.26366 60.0866 6.28409C60.2705 6.28409 60.4646 6.31475 60.669 6.37605C60.8938 6.41693 61.1186 6.48845 61.3434 6.59063C61.5886 6.67238 61.8236 6.79499 62.0484 6.95848L60.6997 13.2732H57.3584C57.3175 12.0062 57.2051 11.1274 57.0211 10.637C56.8372 10.1261 56.5409 9.87062 56.1322 9.87062C55.9278 9.87062 55.703 9.92171 55.4578 10.0239C55.233 10.1056 54.998 10.2998 54.7527 10.6063L52.7909 19.7719H46.5374L49.327 6.59063Z" fill="#16171B"/>
<path d="M18.791 21.0287C18.791 21.6214 18.699 22.1527 18.5151 22.6227C18.3516 23.0928 18.1166 23.5117 17.81 23.8796C17.5035 24.2474 17.1459 24.5744 16.7371 24.8605C16.3284 25.1466 15.8788 25.4123 15.3884 25.6575C15.6132 25.7392 15.8788 25.8721 16.1854 26.056C16.4919 26.2195 16.7882 26.4545 17.0743 26.761C17.3604 27.0676 17.5955 27.4661 17.7794 27.9565C17.9837 28.4266 18.0859 29.009 18.0859 29.7038C18.0859 30.6235 17.8918 31.4716 17.5035 32.2481C17.1152 33.0247 16.5328 33.6991 15.7562 34.2713C15.0001 34.8231 14.06 35.2624 12.936 35.5894C11.8325 35.896 10.5552 36.0492 9.10427 36.0492H-1.02216e-06L4.1383 16.5839H12.2003C12.9973 16.5839 13.7841 16.6452 14.5607 16.7678C15.3577 16.87 16.0627 17.0846 16.6758 17.4115C17.3094 17.7385 17.8203 18.1983 18.2085 18.791C18.5968 19.3632 18.791 20.1091 18.791 21.0287ZM10.453 24.7379C10.9026 24.7379 11.2807 24.605 11.5873 24.3394C11.9142 24.0737 12.1799 23.7467 12.3843 23.3584C12.5886 22.9497 12.7419 22.5206 12.8441 22.071C12.9463 21.6009 12.9973 21.182 12.9973 20.8141C12.9973 20.2215 12.8543 19.7208 12.5682 19.3121C12.3025 18.8829 11.8734 18.6684 11.2807 18.6684H10.3611L9.04296 24.7379H10.453ZM8.24596 34.118C8.85904 34.118 9.36994 33.9443 9.77866 33.5969C10.1874 33.2495 10.5246 32.8203 10.7902 32.3094C11.0559 31.7985 11.2398 31.2672 11.342 30.7154C11.4646 30.1432 11.5259 29.6425 11.5259 29.2134C11.5259 28.4981 11.3727 27.9361 11.0661 27.5274C10.78 27.0982 10.31 26.8837 9.65604 26.8837H8.52184L7.01979 34.118H8.24596Z" fill="#F3B753"/>
<path d="M21.552 22.868H26.5486L27.0084 25.167H27.223C27.693 24.4313 28.2959 23.808 29.0316 23.2971C29.7673 22.7862 30.738 22.5308 31.9437 22.5308C32.0255 22.5308 32.1481 22.541 32.3116 22.5614C32.4955 22.5614 32.6896 22.5921 32.894 22.6534C33.1188 22.6943 33.3436 22.7658 33.5684 22.868C33.8136 22.9497 34.0486 23.0723 34.2734 23.2358L32.9247 29.5506H29.5834C29.5425 28.2835 29.4301 27.4048 29.2462 26.9143C29.0622 26.4034 28.7659 26.148 28.3572 26.148C28.1528 26.148 27.928 26.199 27.6828 26.3012C27.458 26.383 27.223 26.5771 26.9778 26.8837L25.0159 36.0492H18.7625L21.552 22.868Z" fill="#F3B753"/>
<path d="M43.5432 22.5308C45.9751 22.5308 47.7428 22.9599 48.8464 23.8182C50.0112 24.7174 50.5936 26.2093 50.5936 28.2937C50.5936 29.5812 50.3791 30.7461 49.9499 31.7883C49.5208 32.8101 48.9179 33.6582 48.1413 34.3326C46.5882 35.6405 44.3402 36.2945 41.3974 36.2945C38.8838 36.2945 37.0854 35.8142 36.0023 34.8537C34.8374 33.8524 34.255 32.3503 34.255 30.3476C34.255 29.0192 34.5207 27.8135 35.052 26.7304C35.6038 25.6473 36.3906 24.7481 37.4124 24.0328C38.9042 23.0315 40.9478 22.5308 43.5432 22.5308ZM41.4587 34.21C41.9696 34.21 42.409 33.9239 42.7768 33.3517C43.1651 32.7795 43.4717 32.0846 43.6965 31.2672C43.9213 30.4293 44.0848 29.571 44.1869 28.6922C44.3096 27.7931 44.3709 27.0165 44.3709 26.3625C44.3709 25.7903 44.3096 25.3612 44.1869 25.0751C44.0848 24.7685 43.8497 24.6152 43.4819 24.6152C42.9301 24.6152 42.4499 24.9116 42.0411 25.5042C41.6529 26.0969 41.3361 26.8019 41.0909 27.6194C40.8456 28.4368 40.6617 29.2747 40.5391 30.133C40.4369 30.9913 40.3858 31.6861 40.3858 32.2175C40.3858 33.5458 40.7435 34.21 41.4587 34.21Z" fill="#F3B753"/>
<path d="M59.0908 28.447L66.2332 22.868H70.2796L64.1794 27.8646L66.4631 31.9569L68.7469 36.0492H61.8803L58.7536 29.8878L57.4661 36.0492H51.2127L55.5656 15.4497H61.8497L59.0908 28.447Z" fill="#F3B753"/>
<path d="M75.7142 29.8878C75.6325 30.3374 75.5712 30.7665 75.5303 31.1752C75.5098 31.5839 75.4996 31.9518 75.4996 32.2788C75.4996 32.4627 75.5098 32.6671 75.5303 32.8919C75.5507 33.1167 75.5916 33.3312 75.6529 33.5356C75.7346 33.7195 75.8368 33.883 75.9594 34.0261C76.1025 34.1487 76.2966 34.21 76.5419 34.21C76.7258 34.21 76.9302 34.1487 77.155 34.0261C77.4002 33.9034 77.6352 33.7297 77.86 33.5049C78.1052 33.2801 78.33 33.0043 78.5344 32.6773C78.7592 32.3503 78.9329 31.9825 79.0555 31.5737H84.0828L83.2858 34.8537C82.877 35.1194 82.407 35.3442 81.8757 35.5281C81.3443 35.712 80.7823 35.8653 80.1897 35.9879C79.5971 36.0901 78.9942 36.1616 78.3811 36.2025C77.768 36.2638 77.1856 36.2945 76.6338 36.2945C75.612 36.2945 74.6617 36.2025 73.783 36.0186C72.9042 35.8347 72.1379 35.5179 71.4839 35.0683C70.83 34.6187 70.3089 34.0261 69.9206 33.2904C69.5527 32.5342 69.3688 31.6044 69.3688 30.5008C69.3688 29.4995 69.5221 28.5185 69.8286 27.558C70.1556 26.5975 70.6869 25.7495 71.4226 25.0138C72.1788 24.2576 73.1801 23.6548 74.4267 23.2052C75.6938 22.7556 77.2673 22.5308 79.1475 22.5308C81.1911 22.5308 82.7238 22.8475 83.7456 23.481C84.7878 24.1146 85.3089 25.1057 85.3089 26.4545C85.3089 27.0063 85.2272 27.6091 85.0637 28.2631C84.9002 28.8966 84.655 29.4382 84.328 29.8878H75.7142ZM79.7912 26.2399C79.7912 25.6064 79.689 25.1772 79.4847 24.9524C79.2803 24.7276 79.0351 24.6152 78.749 24.6152C78.422 24.6152 78.1154 24.7276 77.8293 24.9524C77.5637 25.1568 77.3184 25.4429 77.0936 25.8108C76.8688 26.1582 76.6645 26.5669 76.4806 27.0369C76.2966 27.4865 76.1434 27.9668 76.0207 28.4777H79.5153C79.5562 28.2324 79.5971 27.977 79.6379 27.7113C79.6788 27.4865 79.7095 27.2413 79.7299 26.9756C79.7708 26.7099 79.7912 26.4647 79.7912 26.2399Z" fill="#F3B753"/>
<path d="M88.2786 22.868H93.2752L93.735 25.167H93.9496C94.4196 24.4313 95.0225 23.808 95.7582 23.2971C96.4939 22.7862 97.4646 22.5308 98.6703 22.5308C98.752 22.5308 98.8747 22.541 99.0381 22.5614C99.2221 22.5614 99.4162 22.5921 99.6206 22.6534C99.8454 22.6943 100.07 22.7658 100.295 22.868C100.54 22.9497 100.775 23.0723 101 23.2358L99.6512 29.5506H96.3099C96.2691 28.2835 96.1567 27.4048 95.9727 26.9143C95.7888 26.4034 95.4925 26.148 95.0838 26.148C94.8794 26.148 94.6546 26.199 94.4094 26.3012C94.1846 26.383 93.9496 26.5771 93.7043 26.8837L91.7425 36.0492H85.489L88.2786 22.868Z" fill="#F3B753"/>
<path fill-rule="evenodd" clip-rule="evenodd" d="M46.8727 6.77014H39.8949C39.3448 6.76966 38.8085 6.94005 38.3623 7.25709C37.916 7.57414 37.5825 8.02171 37.4091 8.53623L36.2138 12.0701C35.896 12.2013 35.6247 12.422 35.4338 12.7047C35.2429 12.9873 35.141 13.3193 35.1409 13.6588V16.2421C35.1409 16.8775 35.4939 17.4269 36.0146 17.7257V18.8253C36.0146 19.0537 36.1067 19.2727 36.2705 19.4342C36.4344 19.5957 36.6566 19.6864 36.8884 19.6864H37.7621C37.9938 19.6864 38.2161 19.5957 38.3799 19.4342C38.5438 19.2727 38.6359 19.0537 38.6359 18.8253V17.9642H44.3477L45.7073 11.9366H38.1002L39.0657 9.08129C39.1854 8.72911 39.5192 8.49231 39.8949 8.49231H46.4842L46.8727 6.77014ZM37.6973 16.1435C37.8563 16.2085 38.0268 16.242 38.199 16.2421C38.5467 16.2422 38.8802 16.1062 39.1262 15.8639C39.3721 15.6217 39.5104 15.2931 39.5105 14.9504C39.5106 14.6078 39.3726 14.2791 39.1268 14.0367C38.881 13.7943 38.5476 13.6581 38.1999 13.658C37.8521 13.6578 37.5186 13.7939 37.2727 14.0361C37.0267 14.2783 36.8885 14.6069 36.8884 14.9496C36.8882 15.2923 37.0263 15.6209 37.2721 15.8633C37.3938 15.9833 37.5383 16.0786 37.6973 16.1435Z" fill="#16171B"/>
</svg>
