<svg width="336" height="180" viewBox="0 0 336 180" fill="none" xmlns="http://www.w3.org/2000/svg">
<rect x="0.5" y="0.5" width="335" height="179" rx="17.5" fill="white" stroke="#A2A2A6"/>
<g opacity="0.8">
<rect x="128" y="36" width="80" height="109" rx="9" stroke="#DADADA" stroke-width="4"/>
<path d="M168 58.0714C170.967 58.0714 173.867 58.9616 176.334 60.6295C178.8 62.2973 180.723 64.6679 181.858 67.4414C182.994 70.2149 183.291 73.2668 182.712 76.2112C182.133 79.1555 180.704 81.8601 178.607 83.9829C176.509 86.1056 173.836 87.5513 170.926 88.1369C168.017 88.7226 165.001 88.422 162.26 87.2732C159.519 86.1243 157.176 84.1789 155.528 81.6828C153.88 79.1867 153 76.252 153 73.25C153 69.2244 154.58 65.3637 157.393 62.5171C160.206 59.6706 164.022 58.0714 168 58.0714ZM168 52C163.847 52 159.786 53.2463 156.333 55.5813C152.88 57.9163 150.188 61.235 148.599 65.118C147.009 69.0009 146.593 73.2736 147.404 77.3957C148.214 81.5178 150.214 85.3042 153.151 88.276C156.088 91.2479 159.83 93.2718 163.903 94.0917C167.977 94.9116 172.199 94.4908 176.036 92.8824C179.874 91.2741 183.153 88.5504 185.461 85.0559C187.768 81.5613 189 77.4529 189 73.25C189 67.6142 186.788 62.2091 182.849 58.224C178.911 54.2388 173.57 52 168 52ZM198 137H192V121.821C192 119.828 191.612 117.854 190.858 116.013C190.104 114.171 188.999 112.498 187.607 111.089C186.214 109.679 184.56 108.561 182.74 107.798C180.92 107.035 178.97 106.643 177 106.643H159C155.022 106.643 151.206 108.242 148.393 111.089C145.58 113.935 144 117.796 144 121.821V137H138V121.821C138 116.186 140.212 110.781 144.151 106.795C148.089 102.81 153.43 100.571 159 100.571H177C182.57 100.571 187.911 102.81 191.849 106.795C195.788 110.781 198 116.186 198 121.821V137Z" fill="#E3E3E3"/>
</g>
<path d="M176 90.5H161M168.5 83V98" stroke="#16171B" stroke-width="4" stroke-linecap="round" stroke-linejoin="round"/>
</svg>
