<svg width="336" height="211" viewBox="0 0 336 211" fill="none" xmlns="http://www.w3.org/2000/svg">
<rect x="0.5" y="0.5" width="335" height="210" rx="17.5" fill="white" stroke="#A2A2A6"/>
<g opacity="0.8">
<rect x="17" y="57" width="80" height="109" rx="9" stroke="#ECECEC" stroke-width="4"/>
<rect x="283" y="46" width="36" height="138" rx="13" stroke="#ECECEC" stroke-width="4"/>
<rect x="109" y="55" width="48" height="7" fill="#ECECEC"/>
<rect x="73" y="17" width="191" height="9" fill="#ECECEC"/>
<rect x="109" y="83" width="55" height="7" fill="#ECECEC"/>
<rect x="109" y="110" width="73" height="8" fill="#ECECEC"/>
<rect x="109" y="141" width="73" height="8" fill="#ECECEC"/>
<rect x="109" y="158" width="48" height="8" fill="#ECECEC"/>
<rect x="109" y="175" width="62" height="8" fill="#ECECEC"/>
<rect x="178" y="175" width="62" height="8" fill="#ECECEC"/>
<rect x="109" y="65" width="34" height="5" fill="#ECECEC"/>
<rect x="95" y="29" width="147" height="5" fill="#ECECEC"/>
<rect x="109" y="93" width="52" height="5" fill="#ECECEC"/>
<rect x="109" y="121" width="66" height="5" fill="#ECECEC"/>
<path d="M57 79.0714C59.9667 79.0714 62.8668 79.9616 65.3336 81.6295C67.8003 83.2973 69.7229 85.6679 70.8582 88.4414C71.9935 91.2149 72.2906 94.2668 71.7118 97.2112C71.133 100.156 69.7044 102.86 67.6066 104.983C65.5088 107.106 62.8361 108.551 59.9264 109.137C57.0166 109.723 54.0006 109.422 51.2598 108.273C48.5189 107.124 46.1762 105.179 44.528 102.683C42.8797 100.187 42 97.252 42 94.25C42 90.2244 43.5804 86.3637 46.3934 83.5171C49.2064 80.6706 53.0218 79.0714 57 79.0714ZM57 73C52.8466 73 48.7865 74.2463 45.333 76.5813C41.8796 78.9163 39.188 82.235 37.5985 86.118C36.0091 90.0009 35.5932 94.2736 36.4035 98.3957C37.2138 102.518 39.2139 106.304 42.1508 109.276C45.0877 112.248 48.8295 114.272 52.9031 115.092C56.9767 115.912 61.1991 115.491 65.0364 113.882C68.8736 112.274 72.1534 109.55 74.4609 106.056C76.7684 102.561 78 98.4529 78 94.25C78 88.6142 75.7875 83.2091 71.8492 79.224C67.911 75.2388 62.5695 73 57 73ZM87 158H81V142.821C81 140.828 80.612 138.854 79.8582 137.013C79.1044 135.171 77.9995 133.498 76.6066 132.089C75.2137 130.679 73.5601 129.561 71.7403 128.798C69.9204 128.035 67.9698 127.643 66 127.643H48C44.0218 127.643 40.2064 129.242 37.3934 132.089C34.5804 134.935 33 138.796 33 142.821V158H27V142.821C27 137.186 29.2125 131.781 33.1508 127.795C37.089 123.81 42.4305 121.571 48 121.571H66C71.5695 121.571 76.911 123.81 80.8492 127.795C84.7875 131.781 87 137.186 87 142.821V158Z" fill="#ECECEC"/>
</g>
<path d="M176 105.5H161M168.5 98V113" stroke="#16171B" stroke-width="4" stroke-linecap="round" stroke-linejoin="round"/>
</svg>
